<?xml version="1.0" standalone="no"?>
<!DOCTYPE svg PUBLIC "-//W3C//DTD SVG 20010904//EN"
 "http://www.w3.org/TR/2001/REC-SVG-20010904/DTD/svg10.dtd">
<svg version="1.0" xmlns="http://www.w3.org/2000/svg"
 width="300.000000pt" height="298.000000pt" viewBox="0 0 300.000000 298.000000"
 preserveAspectRatio="xMidYMid meet">
<metadata>
Created by potrace 1.10, written by Peter Selinger 2001-2011
</metadata>
<g transform="translate(0.000000,298.000000) scale(0.100000,-0.100000)"
fill="#0099ff" stroke="none">
<path d="M1510 2963 c0 -10 4 -24 9 -32 7 -11 10 -9 16 8 3 12 12 19 18 15 7
-3 3 2 -7 10 -26 21 -36 20 -36 -1z m17 -15 c-3 -8 -6 -5 -6 6 -1 11 2 17 5
13 3 -3 4 -12 1 -19z"/>
<path d="M1565 2939 c-4 -6 -5 -12 -2 -15 2 -3 7 2 10 11 7 17 1 20 -8 4z"/>
<path d="M1587 2934 c-4 -4 -7 -12 -7 -18 0 -6 5 -4 11 4 8 11 9 8 5 -15 -5
-28 -5 -28 6 -7 11 23 0 50 -15 36z"/>
<path d="M1635 2899 c-4 -6 -5 -12 -2 -15 2 -3 7 2 10 11 7 17 1 20 -8 4z"/>
<path d="M1534 2890 c2 -16 20 -14 24 2 3 10 2 10 -6 -1 -7 -9 -11 -10 -15 -2
-4 7 -5 8 -3 1z"/>
<path d="M1567 2881 c-4 -17 -3 -21 5 -13 5 5 8 16 6 23 -3 8 -7 3 -11 -10z"/>
<path d="M1650 2878 c-10 -21 -10 -21 3 -6 8 10 18 14 22 10 5 -4 5 -1 1 6
-10 17 -14 15 -26 -10z"/>
<path d="M1283 2870 l-33 -20 0 -153 c0 -134 2 -156 18 -169 9 -9 70 -46 135
-83 l118 -67 35 27 35 26 -3 152 -3 151 -40 28 c-55 38 -211 128 -221 128 -5
0 -24 -9 -41 -20z m82 -30 c17 -11 36 -20 44 -20 8 0 24 -9 36 -20 11 -10 45
-33 74 -49 50 -27 52 -30 32 -40 -24 -13 -29 -33 -6 -25 13 5 15 -12 15 -118
0 -107 -3 -127 -18 -141 -17 -15 -22 -14 -82 19 -36 19 -83 43 -105 54 -82 39
-80 35 -78 186 1 75 4 138 6 140 3 3 22 -5 43 -17 42 -23 84 -41 84 -35 0 3
-29 21 -65 41 -36 20 -65 38 -65 40 0 13 59 2 85 -15z"/>
<path d="M1420 2766 c0 -7 90 -59 95 -54 2 2 -18 16 -46 31 -27 16 -49 26 -49
23z"/>
<path d="M1289 2698 c-3 -47 3 -64 28 -86 14 -13 28 -20 32 -17 3 4 -2 11 -11
16 -10 5 -16 15 -14 22 1 6 1 9 -1 4 -8 -14 -23 4 -23 28 0 29 16 41 35 25 10
-8 15 -9 15 -2 0 12 -31 32 -49 32 -6 0 -12 -10 -12 -22z"/>
<path d="M1320 2669 c0 -5 9 -9 20 -9 11 0 20 2 20 4 0 2 -9 6 -20 9 -11 3
-20 1 -20 -4z"/>
<path d="M1530 2645 c0 -14 2 -25 4 -25 2 0 6 11 8 25 3 14 1 25 -3 25 -5 0
-9 -11 -9 -25z"/>
<path d="M1390 2646 c0 -10 -6 -13 -17 -10 -17 5 -17 5 0 -9 9 -8 17 -21 17
-30 0 -9 4 -19 10 -22 6 -4 7 1 3 11 -5 13 -3 16 10 11 9 -3 17 -2 17 2 0 5
-7 12 -16 15 -9 3 -14 13 -10 21 3 8 1 17 -4 20 -6 4 -10 -1 -10 -9z"/>
<path d="M1467 2593 c6 -16 5 -16 -10 -4 -12 9 -17 10 -17 2 0 -6 7 -14 15
-17 8 -4 16 -16 16 -28 1 -17 2 -18 6 -3 4 14 8 16 19 6 10 -8 14 -9 14 0 0 6
-7 14 -15 17 -8 4 -15 15 -15 25 0 10 -4 19 -10 19 -5 0 -6 -8 -3 -17z"/>
<path d="M1320 2580 c0 -5 5 -10 11 -10 5 0 7 5 4 10 -3 6 -8 10 -11 10 -2 0
-4 -4 -4 -10z"/>
<path d="M1530 2551 c0 -6 5 -13 10 -16 6 -3 10 1 10 9 0 9 -4 16 -10 16 -5 0
-10 -4 -10 -9z"/>
<path d="M1530 2455 c0 -8 2 -15 4 -15 2 0 6 7 10 15 3 8 1 15 -4 15 -6 0 -10
-7 -10 -15z"/>
<path d="M1605 2870 c-3 -11 -3 -24 0 -30 8 -13 25 -3 25 13 0 7 -4 6 -11 -3
-8 -12 -9 -9 -5 13 7 31 0 37 -9 7z"/>
<path d="M1706 2863 c-3 -3 -6 -11 -6 -17 0 -6 5 -4 10 4 12 19 13 4 0 -39 -5
-19 -7 -31 -4 -28 3 3 14 -3 25 -14 20 -20 39 -18 39 4 0 7 -4 6 -10 -3 -8
-12 -10 -12 -10 5 0 16 -2 17 -9 6 -8 -12 -11 -9 -16 11 -4 15 -2 35 5 45 9
15 10 13 5 -12 -3 -19 -2 -25 3 -17 7 11 11 10 16 -5 7 -17 8 -17 23 2 15 20
15 19 10 -4 -4 -17 -3 -21 5 -13 16 16 2 42 -22 37 -12 -2 -20 1 -20 10 0 16
-34 38 -44 28z"/>
<path d="M1511 2855 c0 -5 3 -16 8 -23 7 -11 9 -10 14 3 4 9 3 14 -2 10 -5 -3
-12 1 -14 7 -3 7 -6 9 -6 3z"/>
<path d="M1636 2833 c-6 -14 -5 -15 5 -6 7 7 10 15 7 18 -3 3 -9 -2 -12 -12z"/>
<path d="M1675 2830 c-4 -11 -11 -17 -17 -14 -7 5 -8 2 -3 -6 6 -10 11 -9 22
5 13 19 17 35 9 35 -3 0 -8 -9 -11 -20z"/>
<path d="M1546 2833 c-3 -3 -6 -11 -6 -17 0 -6 5 -4 10 4 5 8 10 10 10 4 0 -6
7 -11 15 -11 20 0 19 4 -4 16 -10 6 -21 7 -25 4z"/>
<path d="M1686 2803 c-6 -14 -5 -15 5 -6 7 7 10 15 7 18 -3 3 -9 -2 -12 -12z"/>
<path d="M2234 2807 c-2 -7 -3 -62 -1 -123 l3 -109 2 117 c1 82 6 118 15 121
9 4 9 6 -1 6 -7 1 -15 -5 -18 -12z"/>
<path d="M1595 2799 c-4 -6 -5 -12 -2 -15 2 -3 7 2 10 11 7 17 1 20 -8 4z"/>
<path d="M1611 2779 c-10 -21 -10 -22 1 -7 13 15 15 15 24 0 9 -13 12 -14 19
-1 4 8 5 11 0 7 -4 -4 -14 0 -20 9 -11 15 -13 14 -24 -8z"/>
<path d="M1825 2789 c-4 -6 -5 -12 -2 -15 2 -3 7 2 10 11 7 17 1 20 -8 4z"/>
<path d="M1828 2760 c-14 -16 -29 -26 -33 -22 -5 4 -5 1 0 -6 5 -11 15 -6 38
20 l30 33 -7 -30 c-5 -22 -4 -26 4 -15 11 17 14 1 3 -25 -5 -15 -8 -15 -18 5
-10 19 -13 20 -18 6 -4 -10 -3 -15 3 -11 6 3 10 2 10 -4 0 -6 8 -15 18 -20 15
-8 17 -4 17 40 1 59 -13 67 -47 29z"/>
<path d="M920 2776 c0 -3 9 -10 20 -16 11 -6 20 -8 20 -6 0 3 -9 10 -20 16
-11 6 -20 8 -20 6z"/>
<path d="M1800 2769 c0 -5 -4 -8 -9 -5 -5 3 -12 -1 -15 -9 -4 -13 -2 -14 14
-5 18 10 28 30 15 30 -3 0 -5 -5 -5 -11z"/>
<path d="M1664 2755 c-3 -8 -10 -13 -14 -10 -5 3 -11 -4 -15 -15 -4 -11 -12
-18 -18 -14 -7 3 -3 -1 7 -10 20 -16 36 -13 36 7 0 7 -4 6 -10 -3 -6 -10 -10
-11 -10 -2 0 6 9 21 20 32 23 23 24 19 11 -28 -9 -30 -8 -31 10 -22 10 6 19
16 19 23 0 7 -4 6 -10 -3 -9 -13 -10 -13 -10 0 0 8 4 21 9 29 7 11 10 9 16 -8
8 -27 -3 -63 -17 -55 -7 5 -8 2 -3 -5 5 -9 15 -4 36 19 16 17 29 34 29 38 0 4
-8 -2 -17 -13 -15 -20 -15 -20 -10 3 3 12 1 20 -4 16 -5 -3 -9 -1 -9 5 0 6 -9
15 -20 21 -16 9 -22 8 -26 -5z"/>
<path d="M2340 2766 c0 -3 9 -10 20 -16 11 -6 20 -8 20 -6 0 3 -9 10 -20 16
-11 6 -20 8 -20 6z"/>
<path d="M970 2746 c0 -3 9 -10 20 -16 11 -6 20 -8 20 -6 0 3 -9 10 -20 16
-11 6 -20 8 -20 6z"/>
<path d="M2410 2726 c0 -3 9 -10 20 -16 11 -6 20 -8 20 -6 0 3 -9 10 -20 16
-11 6 -20 8 -20 6z"/>
<path d="M1040 2706 c0 -3 9 -10 20 -16 11 -6 20 -8 20 -6 0 3 -9 10 -20 16
-11 6 -20 8 -20 6z"/>
<path d="M1750 2695 c-19 -22 -8 -25 13 -3 9 10 13 18 8 18 -5 0 -14 -7 -21
-15z"/>
<path d="M1785 2689 c-4 -6 -5 -12 -2 -15 2 -3 7 2 10 11 7 17 1 20 -8 4z"/>
<path d="M1802 2674 c-5 -10 -21 -18 -35 -18 -14 -1 -30 -6 -34 -10 -4 -5 -3
-6 3 -3 7 4 15 -1 18 -10 6 -14 11 -12 35 15 16 17 32 28 37 24 4 -4 4 -1 0 6
-9 16 -13 15 -24 -4z"/>
<path d="M1716 2663 c-6 -14 -5 -15 5 -6 7 7 10 15 7 18 -3 3 -9 -2 -12 -12z"/>
<path d="M1626 2663 c-3 -3 -6 -11 -6 -17 0 -6 5 -4 10 4 12 19 13 4 1 -38 -6
-18 -6 -30 -2 -27 5 2 11 18 15 35 3 18 10 29 16 25 5 -3 10 -4 10 -1 0 9 -37
25 -44 19z"/>
<path d="M1827 2639 c4 -13 8 -18 11 -10 2 7 -1 18 -6 23 -8 8 -9 4 -5 -13z"/>
<path d="M1857 2653 c-4 -3 -7 -11 -7 -17 0 -6 5 -4 10 4 12 19 13 4 1 -38 -6
-18 -6 -30 -1 -27 4 3 10 0 12 -6 2 -6 3 10 3 34 0 46 -6 62 -18 50z"/>
<path d="M1123 2590 c0 -36 2 -50 4 -32 2 17 2 47 0 65 -2 17 -4 3 -4 -33z"/>
<path d="M1677 2633 c-2 -5 -7 -21 -11 -36 -4 -17 -11 -25 -18 -21 -7 5 -8 3
-3 -5 10 -17 23 -3 34 37 9 30 8 42 -2 25z"/>
<path d="M1786 2623 c-6 -14 -5 -15 5 -6 7 7 10 15 7 18 -3 3 -9 -2 -12 -12z"/>
<path d="M742 2608 l-33 -21 2 -146 c1 -80 4 -153 6 -161 2 -8 61 -48 131 -88
l127 -73 35 20 35 20 3 138 c1 76 0 148 -3 160 -3 14 -43 44 -122 92 -65 38
-125 72 -133 75 -8 2 -30 -5 -48 -16z m190 -89 c31 -21 67 -41 79 -44 23 -8
23 -8 3 -24 -17 -13 -21 -30 -23 -85 -1 -47 1 -66 9 -61 6 4 10 14 9 23 -4 43
2 102 10 102 11 0 9 -246 -2 -256 -4 -4 -7 -2 -7 4 0 23 -19 12 -22 -12 -3
-24 -4 -24 -35 -11 -24 10 -33 20 -33 38 0 18 -11 29 -46 46 -25 13 -48 29
-51 37 -3 8 -9 11 -14 9 -4 -3 -28 4 -51 16 -24 12 -37 24 -31 26 7 3 23 -3
35 -11 25 -18 38 -20 38 -7 0 5 -9 11 -21 14 -22 6 -22 28 -1 35 7 2 10 -2 6
-11 -3 -8 2 -17 10 -20 13 -5 16 3 16 48 0 30 5 55 10 55 6 0 10 -11 10 -25 0
-15 8 -29 21 -36 20 -10 21 -9 16 10 -3 15 -1 21 6 18 7 -2 13 -29 15 -62 3
-50 1 -57 -11 -46 -8 6 -13 20 -10 31 3 12 -2 22 -16 29 -18 10 -21 9 -21 -9
0 -11 -4 -20 -9 -20 -5 0 -11 -7 -14 -15 -5 -11 -1 -12 18 -5 17 6 25 5 29 -5
3 -8 19 -21 36 -30 29 -15 32 -15 60 5 41 29 41 71 1 99 -16 12 -33 21 -39 21
-5 0 -15 7 -22 15 -7 8 -16 12 -22 9 -5 -3 -17 3 -26 13 -9 11 -24 23 -32 26
-58 27 -75 44 -76 79 -1 37 11 61 36 70 16 5 66 -20 162 -83z m-153 -73 c26
-27 25 -63 -2 -58 -10 2 -17 -4 -17 -13 0 -8 -4 -15 -10 -15 -5 0 -10 25 -10
55 0 30 4 55 8 55 5 0 19 -11 31 -24z m175 -105 c23 -25 14 -55 -15 -48 -16 4
-19 2 -14 -14 5 -14 3 -17 -9 -13 -12 5 -16 20 -16 60 0 49 2 54 18 45 9 -5
26 -18 36 -30z m-165 -68 c25 -14 40 -28 33 -31 -10 -3 -8 -8 5 -18 14 -12 11
-11 -14 1 -35 17 -44 28 -15 19 14 -5 14 -3 -2 10 -23 19 -40 21 -30 5 5 -8 2
-9 -11 -1 -17 9 -30 42 -17 42 3 0 26 -12 51 -27z m92 -50 c36 -22 37 -29 2
-28 -16 0 -28 5 -28 10 0 6 -4 16 -8 23 -11 17 0 15 34 -5z"/>
<path d="M750 2573 c0 -5 28 -21 62 -38 33 -16 66 -34 72 -40 16 -15 96 -57
96 -51 0 5 -140 90 -199 120 -17 9 -31 13 -31 9z"/>
<path d="M990 2276 c0 -8 5 -18 10 -21 6 -3 10 3 10 14 0 12 -4 21 -10 21 -5
0 -10 -6 -10 -14z"/>
<path d="M990 2219 c0 -11 5 -17 10 -14 6 3 10 13 10 21 0 8 -4 14 -10 14 -5
0 -10 -9 -10 -21z"/>
<path d="M760 2426 c0 -9 5 -16 10 -16 6 0 10 4 10 9 0 6 -4 13 -10 16 -5 3
-10 -1 -10 -9z"/>
<path d="M920 2338 c0 -18 18 -34 28 -24 3 4 -2 14 -11 23 -16 16 -17 16 -17
1z"/>
<path d="M1696 2623 c-3 -3 -6 -11 -6 -17 0 -6 5 -4 11 4 8 11 9 8 5 -15 -6
-29 -6 -29 7 -7 7 12 16 19 20 16 4 -4 7 -4 7 -1 0 10 -37 27 -44 20z"/>
<path d="M1806 2598 c3 -5 10 -6 15 -3 13 9 11 12 -6 12 -8 0 -12 -4 -9 -9z"/>
<path d="M1836 2593 c-6 -14 -5 -15 5 -6 7 7 10 15 7 18 -3 3 -9 -2 -12 -12z"/>
<path d="M2470 2569 c-12 -23 -20 -43 -18 -45 3 -2 14 17 26 41 27 56 20 60
-8 4z"/>
<path d="M1757 2568 c-6 -22 -5 -22 8 -4 10 13 15 15 15 6 0 -8 -10 -25 -22
-38 l-23 -25 23 14 c12 8 22 17 22 22 0 4 4 5 10 2 6 -4 7 2 1 16 -11 31 -27
34 -34 7z"/>
<path d="M2505 2577 c-12 -9 -14 -16 -7 -21 6 -3 16 3 22 14 13 24 10 25 -15
7z"/>
<path d="M1676 2563 c-6 -14 -5 -15 5 -6 7 7 10 15 7 18 -3 3 -9 -2 -12 -12z"/>
<path d="M1715 2560 c-3 -11 -3 -24 0 -30 8 -13 25 -3 25 13 0 7 -4 6 -11 -3
-8 -12 -9 -9 -5 13 7 31 0 37 -9 7z"/>
<path d="M2528 2555 c-6 -14 -15 -25 -20 -25 -5 0 -6 -4 -3 -10 3 -5 2 -10 -4
-10 -6 0 -15 -9 -21 -20 -8 -15 -6 -21 10 -30 18 -10 23 -5 47 44 15 30 31 52
36 49 6 -3 7 -1 3 6 -11 17 -19 8 -45 -48 -15 -31 -29 -47 -37 -44 -7 2 -10
11 -7 19 3 8 8 12 12 9 4 -2 17 16 29 40 12 25 19 45 17 45 -3 0 -11 -11 -17
-25z"/>
<path d="M1815 2549 c-4 -6 -5 -12 -2 -15 2 -3 7 2 10 11 7 17 1 20 -8 4z"/>
<path d="M1830 2528 c-10 -21 -10 -21 3 -6 8 10 18 14 22 10 5 -4 5 -1 1 6
-10 17 -14 15 -26 -10z"/>
<path d="M2472 2525 c-17 -37 -14 -45 4 -12 9 16 14 31 11 33 -2 2 -9 -7 -15
-21z"/>
<path d="M2585 2539 c-4 -6 -5 -12 -2 -15 2 -3 7 2 10 11 7 17 1 20 -8 4z"/>
<path d="M2312 2525 c8 -11 13 -27 10 -35 -4 -12 -2 -13 9 -2 11 10 9 16 -11
35 -19 17 -21 18 -8 2z"/>
<path d="M2590 2499 c-12 -23 -17 -38 -12 -35 5 3 15 19 22 36 9 21 15 27 21
19 4 -7 15 -14 23 -15 20 -3 11 12 -14 26 -17 9 -22 5 -40 -31z"/>
<path d="M1784 2515 c-4 -8 -11 -12 -18 -9 -6 3 -2 -1 8 -10 20 -16 36 -13 36
7 0 7 -4 6 -11 -3 -9 -12 -10 -11 -6 8 6 25 -1 30 -9 7z"/>
<path d="M1867 2523 c-2 -5 -7 -21 -11 -36 -4 -18 -11 -25 -19 -21 -8 5 -9 4
-2 -4 25 -27 40 -17 40 25 0 44 -1 48 -8 36z m0 -65 c-3 -8 -6 -5 -6 6 -1 11
2 17 5 13 3 -3 4 -12 1 -19z"/>
<path d="M2536 2471 c-13 -28 -13 -31 -2 -16 8 11 22 27 31 36 12 13 12 16 1
16 -8 0 -21 -16 -30 -36z"/>
<path d="M1640 2479 c-7 -11 -10 -23 -7 -25 2 -2 9 7 15 21 14 30 7 33 -8 4z"/>
<path d="M1816 2483 c-6 -14 -5 -15 5 -6 7 7 10 15 7 18 -3 3 -9 -2 -12 -12z"/>
<path d="M2347 2485 c-4 -9 1 -19 13 -25 26 -14 29 -13 27 10 -1 10 -3 17 -6
15 -2 -3 -10 0 -16 5 -9 8 -14 6 -18 -5z m28 -15 c3 -6 -1 -7 -9 -4 -18 7 -21
14 -7 14 6 0 13 -4 16 -10z"/>
<path d="M2595 2461 c-12 -27 -22 -38 -32 -34 -11 4 -12 8 -3 13 8 5 8 10 2
14 -5 3 -12 -1 -16 -9 -3 -9 3 -19 14 -25 17 -9 22 -5 40 31 12 22 20 43 17
45 -2 2 -12 -13 -22 -35z"/>
<path d="M1643 2436 c-15 -30 -31 -52 -36 -49 -6 3 -7 1 -3 -6 11 -17 19 -8
45 48 16 32 28 48 37 44 8 -3 11 -10 7 -16 -3 -6 -1 -7 5 -3 16 10 15 14 -8
26 -18 10 -23 5 -47 -44z"/>
<path d="M2644 2475 c-4 -8 -9 -13 -13 -10 -4 2 -15 -13 -25 -33 -13 -29 -13
-33 -1 -18 8 11 15 24 15 29 0 4 4 6 9 3 4 -3 13 6 19 19 7 14 9 25 6 25 -2 0
-7 -7 -10 -15z"/>
<path d="M470 2469 c0 -5 4 -8 8 -5 4 2 14 1 22 -5 13 -7 13 -9 0 -10 -8 -1
-17 -1 -20 -1 -3 0 -7 -8 -7 -19 -1 -15 2 -17 16 -9 28 14 33 38 11 50 -24 13
-30 13 -30 -1z"/>
<path d="M2656 2451 c-23 -43 -20 -52 5 -12 11 18 18 35 15 38 -2 3 -12 -9
-20 -26z"/>
<path d="M1705 2429 c-9 -17 -15 -33 -13 -35 3 -2 12 12 21 31 21 43 13 47 -8
4z"/>
<path d="M518 2425 c-10 -22 -19 -29 -38 -27 -3 0 -7 -8 -7 -19 -2 -25 35 -46
43 -24 3 8 9 13 13 11 4 -3 8 5 8 17 2 21 1 22 -13 3 -8 -11 -14 -25 -14 -30
0 -6 -5 -4 -10 4 -12 19 -13 33 -1 25 5 -3 12 4 16 15 4 11 10 18 14 16 4 -3
8 4 8 15 2 26 -5 24 -19 -6z"/>
<path d="M1613 2435 c0 -8 4 -12 9 -9 5 3 6 10 3 15 -9 13 -12 11 -12 -6z"/>
<path d="M1652 2405 c-12 -25 -20 -45 -17 -45 7 0 47 81 43 86 -3 2 -14 -17
-26 -41z"/>
<path d="M1713 2395 c-15 -30 -31 -51 -36 -48 -6 3 -7 1 -3 -6 10 -16 20 -7
40 37 10 22 27 44 39 49 18 8 19 10 4 16 -14 5 -23 -5 -44 -48z"/>
<path d="M2403 2429 c-1 -10 3 -22 9 -25 6 -4 8 -3 5 2 -3 6 -2 16 4 24 6 11
9 11 10 3 3 -28 4 -32 11 -38 4 -4 4 -14 1 -23 -4 -15 -3 -15 10 0 17 22 31
11 15 -11 -10 -14 -10 -14 2 -3 8 7 15 17 15 23 0 5 3 9 8 9 4 0 12 0 17 0 7
0 7 -7 0 -22 -11 -22 -11 -22 5 -3 14 18 14 21 -1 32 -14 10 -21 10 -33 0 -12
-10 -14 -9 -8 8 7 20 7 20 -9 0 -16 -20 -16 -20 -11 2 5 24 -1 32 -31 38 -12
2 -18 -3 -19 -16z"/>
<path d="M2659 2409 c-11 -23 -16 -38 -11 -35 5 3 15 19 22 36 7 16 17 27 23
23 6 -3 7 -1 3 5 -11 18 -14 15 -37 -29z"/>
<path d="M2704 2427 c-11 -12 -26 -33 -33 -47 -11 -22 -10 -23 2 -8 8 10 16
16 19 13 2 -3 12 11 21 30 20 41 19 42 -9 12z"/>
<path d="M2734 2429 c-4 -7 -3 -9 4 -5 5 3 12 0 15 -6 2 -7 7 -10 11 -7 4 3 0
12 -8 18 -11 9 -16 9 -22 0z"/>
<path d="M550 2421 c0 -11 26 -22 34 -14 3 3 3 10 0 14 -7 12 -34 11 -34 0z"/>
<path d="M1756 2405 c-9 -26 -7 -32 5 -12 6 10 9 21 6 23 -2 3 -7 -2 -11 -11z"/>
<path d="M2617 2406 c-3 -8 -2 -18 3 -21 13 -8 20 9 11 24 -6 10 -10 9 -14 -3z"/>
<path d="M1994 2396 c-3 -7 -3 -38 -1 -67 l3 -54 2 64 c2 52 5 62 18 57 8 -3
12 -2 9 4 -9 14 -25 12 -31 -4z"/>
<path d="M2710 2380 c-7 -16 -17 -27 -23 -23 -6 3 -7 1 -3 -5 4 -7 9 -12 11
-12 7 0 37 62 32 66 -2 3 -10 -9 -17 -26z"/>
<path d="M616 2392 c-3 -4 4 -9 15 -9 23 -2 25 3 4 10 -8 4 -16 3 -19 -1z"/>
<path d="M1769 2378 c-6 -11 -8 -22 -6 -25 3 -2 8 5 12 16 3 12 11 19 16 16 5
-4 2 -18 -7 -33 l-16 -27 20 24 c12 15 25 22 36 18 27 -11 18 1 -14 17 -28 14
-31 13 -41 -6z"/>
<path d="M2320 2389 c0 -5 5 -7 10 -4 6 3 10 8 10 11 0 2 -4 4 -10 4 -5 0 -10
-5 -10 -11z"/>
<path d="M1660 2368 c-10 -21 -10 -21 3 -6 8 10 18 14 22 10 5 -4 5 -1 1 6
-10 17 -14 15 -26 -10z"/>
<path d="M1717 2356 c-13 -28 -13 -34 -2 -32 8 1 18 6 22 11 4 4 2 5 -4 1 -16
-9 -16 -1 -2 26 6 11 9 22 7 24 -3 2 -12 -12 -21 -30z"/>
<path d="M2344 2375 c-3 -8 -11 -12 -17 -8 -6 4 -7 1 -2 -7 6 -10 11 -9 22 5
7 11 13 13 13 6 0 -7 5 -9 11 -5 7 4 10 1 7 -7 -3 -8 -12 -12 -19 -11 -8 2
-10 0 -6 -4 15 -15 33 -11 34 7 2 25 -35 46 -43 24z"/>
<path d="M2726 2362 c-15 -28 -14 -29 11 -27 29 1 39 27 18 45 -11 9 -17 5
-29 -18z m30 -6 c1 -7 -5 -13 -12 -13 -16 0 -16 0 -8 22 7 17 17 13 20 -9z"/>
<path d="M2060 2376 c0 -3 9 -10 20 -16 11 -6 20 -8 20 -6 0 3 -9 10 -20 16
-11 6 -20 8 -20 6z"/>
<path d="M2525 2350 c-9 -16 -13 -30 -11 -30 3 0 12 14 21 30 9 17 13 30 11
30 -3 0 -12 -13 -21 -30z"/>
<path d="M570 2355 c0 -8 2 -15 4 -15 2 0 6 7 10 15 3 8 1 15 -4 15 -6 0 -10
-7 -10 -15z"/>
<path d="M620 2365 c0 -5 4 -16 9 -23 6 -11 10 -10 15 4 3 9 4 19 1 22 -3 3
-5 -1 -5 -9 0 -11 -2 -11 -10 1 -5 8 -10 11 -10 5z"/>
<path d="M660 2350 c-6 -11 -8 -20 -6 -20 3 0 10 9 16 20 6 11 8 20 6 20 -3 0
-10 -9 -16 -20z"/>
<path d="M1523 2355 c-3 -10 1 -23 11 -31 8 -8 14 -11 11 -8 -3 4 3 13 12 19
15 11 15 13 -5 24 -18 10 -23 9 -29 -4z m37 -10 c0 -2 -7 -5 -15 -9 -9 -3 -15
0 -15 9 0 9 6 12 15 9 8 -4 15 -7 15 -9z"/>
<path d="M588 2335 c-9 -19 -14 -22 -25 -14 -8 7 -13 8 -13 1 0 -25 31 -20 45
8 9 17 13 30 10 30 -3 0 -11 -11 -17 -25z"/>
<path d="M525 2340 c-3 -5 -1 -10 4 -10 6 0 11 5 11 10 0 6 -2 10 -4 10 -3 0
-8 -4 -11 -10z"/>
<path d="M1814 2334 c-18 -13 -18 -14 6 -9 19 4 53 -11 143 -66 65 -39 121
-69 123 -66 3 2 -17 17 -43 32 -26 15 -55 33 -63 40 -8 7 -45 28 -81 48 -60
32 -68 35 -85 21z"/>
<path d="M2403 2328 c-1 -10 7 -23 17 -28 15 -8 21 -6 30 9 7 14 7 22 0 26 -6
4 -10 3 -9 -2 4 -21 -2 -32 -16 -27 -10 4 -12 11 -5 23 6 12 5 18 -4 18 -6 0
-13 -9 -13 -19z"/>
<path d="M2600 2346 c0 -3 26 -19 58 -37 67 -38 67 -38 61 -44 -3 -2 -31 12
-63 31 -53 32 -62 34 -88 23 -42 -17 -32 -38 40 -80 68 -40 81 -49 66 -49 -6
0 -36 16 -69 35 -32 20 -60 34 -62 31 -2 -2 15 -15 39 -29 24 -15 36 -26 28
-26 -8 0 -24 6 -34 14 -11 8 -23 15 -28 15 -14 0 -10 -214 5 -232 6 -9 67 -48
134 -87 l122 -71 36 21 35 21 -2 160 -3 160 -125 74 c-112 65 -150 83 -150 70z
m11 -36 c10 -6 19 -16 19 -22 0 -9 -3 -9 -12 0 -7 7 -16 12 -21 12 -22 0 84
-72 156 -106 20 -10 37 -21 37 -25 0 -4 9 -9 20 -12 19 -5 20 -14 20 -141 0
-154 -3 -161 -64 -127 -20 12 -53 31 -73 42 -96 54 -124 72 -119 77 3 3 1 11
-5 19 -9 9 -8 13 0 13 9 0 9 5 1 20 -9 16 -8 18 5 14 8 -4 15 -2 15 4 0 6 -6
12 -12 15 -7 2 -9 8 -5 13 11 12 27 -15 27 -46 0 -34 26 -70 51 -70 21 0 23
12 10 78 -5 24 -5 45 0 48 5 3 6 10 3 16 -4 6 1 8 12 6 13 -2 21 -16 26 -47 4
-24 4 -49 1 -55 -4 -5 -8 -25 -10 -43 -3 -27 1 -35 21 -45 30 -13 56 2 56 33
0 10 7 22 15 26 13 8 13 12 0 37 -8 16 -15 47 -15 71 0 50 -4 54 -126 119 -29
16 -90 78 -68 69 12 -4 15 -3 10 5 -9 15 -1 15 25 2z m73 -41 c20 -12 36 -25
36 -30 0 -5 -18 1 -40 13 -22 13 -40 26 -40 31 0 11 5 9 44 -14z m72 -40 c4
-7 9 -8 13 -1 4 6 23 0 49 -15 38 -23 42 -28 29 -40 -13 -13 -21 -11 -66 19
-48 31 -63 48 -42 48 6 0 13 -5 17 -11z m-91 -49 c35 -23 58 -27 29 -5 -28 21
-4 18 34 -5 36 -22 43 -36 10 -20 -23 11 -23 11 -3 -7 14 -13 19 -28 17 -51
-2 -18 3 -40 10 -49 10 -13 10 -17 1 -20 -7 -3 -13 -18 -13 -34 0 -22 -5 -29
-20 -29 -11 0 -20 7 -20 15 0 8 4 15 9 15 4 0 6 11 3 25 -2 15 0 25 7 25 9 0
9 5 0 21 -6 12 -9 30 -6 40 4 14 -5 27 -27 44 -42 32 -56 32 -56 0 0 -14 -5
-25 -12 -25 -9 0 -9 -3 0 -12 7 -7 12 -26 12 -43 0 -17 5 -36 12 -43 6 -6 9
-14 6 -17 -12 -12 -38 28 -38 59 0 19 -7 39 -15 46 -8 7 -15 16 -15 21 0 5 7
9 15 9 10 0 15 10 15 30 0 35 5 36 45 10z m-71 -5 c-4 -8 -10 -15 -14 -15 -4
0 -10 7 -14 15 -4 10 1 15 14 15 13 0 18 -5 14 -15z m266 -120 c0 -54 -4 -95
-10 -95 -5 0 -9 40 -8 95 0 52 4 95 9 95 5 0 9 -43 9 -95z m-2 -135 c-1 -16
-5 -30 -10 -30 -4 0 -8 14 -8 30 0 17 4 30 9 30 5 0 9 -13 9 -30z"/>
<path d="M601 2313 c-10 -26 -10 -27 4 -9 8 11 15 23 15 28 0 15 -7 8 -19 -19z"/>
<path d="M658 2296 c-13 -28 -26 -42 -35 -39 -7 3 -13 3 -13 0 0 -3 7 -7 15
-11 11 -4 22 9 40 44 14 28 23 50 20 50 -3 0 -15 -20 -27 -44z"/>
<path d="M1570 2319 c-13 -23 -6 -54 10 -44 5 3 10 12 10 18 0 7 -4 6 -10 -3
-14 -21 -13 5 0 31 6 10 8 19 6 19 -3 0 -10 -9 -16 -21z"/>
<path d="M2130 2336 c0 -3 9 -10 20 -16 11 -6 20 -8 20 -6 0 3 -9 10 -20 16
-11 6 -20 8 -20 6z"/>
<path d="M1594 2318 c-4 -7 -3 -8 4 -4 15 9 15 5 2 -28 -8 -21 -6 -27 10 -36
16 -9 22 -5 35 22 14 29 14 31 0 14 -8 -11 -15 -23 -15 -28 0 -4 -6 -5 -14 -2
-8 3 -12 13 -9 25 4 14 8 17 13 9 5 -8 9 -7 13 4 8 20 -28 42 -39 24z"/>
<path d="M1443 2298 c-1 -34 3 -35 18 -7 6 13 7 19 1 15 -6 -3 -12 0 -15 6 -2
7 -4 1 -4 -14z"/>
<path d="M2460 2300 c-6 -11 -8 -20 -6 -20 3 0 10 9 16 20 6 11 8 20 6 20 -3
0 -10 -9 -16 -20z"/>
<path d="M616 2293 c-6 -14 -5 -15 5 -6 7 7 10 15 7 18 -3 3 -9 -2 -12 -12z"/>
<path d="M1767 2293 c-3 -10 -5 -80 -5 -156 0 -104 3 -140 13 -151 8 -8 67
-44 132 -81 l117 -68 36 19 35 19 3 153 c1 83 -1 152 -6 152 -4 0 -17 -6 -27
-14 -17 -12 -23 -11 -50 9 -42 31 -156 92 -125 67 13 -11 47 -33 75 -47 74
-40 85 -53 85 -98 0 -52 10 -43 12 11 1 23 5 42 10 42 4 0 6 -29 4 -65 -2 -36
0 -62 5 -59 5 3 9 0 9 -5 0 -6 -5 -11 -11 -11 -5 0 -7 -5 -3 -12 13 -21 10
-107 -3 -113 -10 -3 -13 17 -15 78 l-2 82 -5 -95 c-6 -88 -7 -95 -26 -92 -11
2 -22 7 -25 11 -3 4 -14 11 -26 16 -11 6 -59 33 -107 60 l-86 50 -1 153 0 152
40 -20 c50 -25 53 -19 4 9 -43 26 -51 26 -57 4z"/>
<path d="M2188 2298 c10 -12 12 -49 10 -136 -2 -66 0 -118 5 -115 4 2 7 57 7
122 0 101 -3 121 -17 132 -16 13 -17 12 -5 -3z"/>
<path d="M2480 2290 c-8 -15 -6 -21 9 -30 14 -7 22 -7 26 0 4 6 3 10 -2 9 -22
-4 -32 2 -27 16 4 8 11 12 17 8 6 -3 7 -1 3 5 -10 16 -14 15 -26 -8z"/>
<path d="M473 2279 c-2 -25 35 -46 43 -24 3 8 11 12 18 9 6 -4 4 1 -5 10 -23
25 -55 28 -56 5z m41 -14 c-3 -8 -12 -11 -19 -9 -8 3 -11 12 -9 19 3 8 12 11
19 9 8 -3 11 -12 9 -19z"/>
<path d="M1470 2280 c-8 -16 -6 -21 12 -30 20 -9 21 -9 7 2 -22 18 -13 44 9
26 15 -12 16 -11 3 5 -17 21 -18 21 -31 -3z"/>
<path d="M1655 2257 c-14 -28 -14 -30 0 -13 8 11 15 25 15 30 0 6 7 3 14 -7 8
-10 16 -14 19 -10 3 5 -3 14 -13 21 -17 10 -21 8 -35 -21z"/>
<path d="M661 2253 c-10 -26 -10 -27 4 -9 8 11 15 23 15 28 0 15 -7 8 -19 -19z"/>
<path d="M1520 2251 c0 -10 8 -25 17 -32 9 -8 14 -9 10 -3 -4 7 0 15 9 18 8 3
12 11 8 17 -5 9 -12 6 -22 -7 -14 -18 -14 -18 -9 4 3 12 1 22 -4 22 -5 0 -9
-8 -9 -19z"/>
<path d="M1708 2235 c-9 -20 -14 -22 -29 -14 -11 5 -19 7 -19 5 0 -3 9 -10 20
-16 16 -9 22 -6 35 20 8 16 13 30 10 30 -3 0 -10 -11 -17 -25z"/>
<path d="M525 2240 c-3 -5 -1 -10 4 -10 6 0 11 5 11 10 0 6 -2 10 -4 10 -3 0
-8 -4 -11 -10z"/>
<path d="M676 2232 c-3 -6 2 -16 13 -22 20 -10 41 3 27 17 -3 4 -6 0 -6 -7 0
-9 -5 -8 -13 5 -9 12 -16 14 -21 7z"/>
<path d="M1570 2220 c-6 -11 -8 -20 -6 -20 3 0 10 9 16 20 6 11 8 20 6 20 -3
0 -10 -9 -16 -20z"/>
<path d="M571 2223 c1 -4 1 -15 0 -23 -1 -13 -2 -13 -12 0 -9 13 -10 13 -6 0
2 -8 8 -15 13 -15 19 0 33 -16 28 -33 -5 -16 -5 -16 9 0 8 10 17 15 20 11 4
-3 7 -1 7 5 0 7 4 12 10 12 5 0 7 -8 4 -17 -5 -15 -4 -16 5 -3 8 11 6 18 -7
28 -14 10 -19 10 -28 -3 -6 -8 -14 -12 -17 -8 -4 3 -1 13 6 22 11 14 10 15 -7
1 -18 -14 -19 -13 -13 2 3 10 2 20 -4 23 -5 4 -9 3 -8 -2z"/>
<path d="M1234 2217 c-2 -7 -3 -62 -1 -123 l3 -109 2 117 c1 82 6 118 15 121
9 4 9 6 -1 6 -7 1 -15 -5 -18 -12z"/>
<path d="M1590 2208 c-11 -23 -11 -23 6 -3 16 20 16 20 11 -3 -6 -26 26 -51
39 -30 4 7 3 8 -4 4 -7 -4 -12 -3 -12 3 0 5 7 11 16 13 11 2 7 8 -15 21 -30
17 -30 17 -41 -5z"/>
<path d="M727 2205 c-6 -15 10 -32 20 -21 4 3 1 6 -5 6 -6 0 -9 7 -6 15 4 8 4
15 1 15 -3 0 -7 -7 -10 -15z"/>
<path d="M1270 2216 c0 -3 9 -10 20 -16 11 -6 20 -8 20 -6 0 3 -9 10 -20 16
-11 6 -20 8 -20 6z"/>
<path d="M756 2198 c3 -5 10 -6 15 -3 13 9 11 12 -6 12 -8 0 -12 -4 -9 -9z"/>
<path d="M784 2185 c-4 -8 -11 -12 -17 -8 -6 3 -7 1 -3 -5 10 -16 14 -15 26 8
6 11 8 20 5 20 -3 0 -8 -7 -11 -15z"/>
<path d="M1856 2184 c-10 -9 -16 -33 -16 -59 0 -35 -5 -47 -26 -62 -20 -15
-25 -25 -20 -41 8 -23 34 -28 71 -13 14 6 28 2 47 -10 52 -37 98 -12 98 55 0
46 -20 86 -60 120 -36 29 -71 33 -94 10z m93 -28 c46 -41 65 -120 35 -150 -22
-22 -38 -20 -73 10 -30 25 -33 25 -56 10 -30 -20 -41 -20 -48 -1 -4 9 5 21 23
32 27 15 29 21 24 54 -5 29 -2 41 15 58 23 23 43 20 80 -13z"/>
<path d="M1884 2135 c-14 -36 27 -105 61 -105 34 0 31 64 -5 100 -24 24 -48
26 -56 5z m48 -22 c22 -26 29 -51 16 -59 -15 -10 -59 42 -52 61 8 20 18 19 36
-2z"/>
<path d="M801 2172 c-9 -18 -8 -23 8 -32 17 -8 22 -6 32 12 6 13 8 20 4 16 -4
-4 -14 0 -20 9 -11 15 -13 15 -24 -5z m29 -24 c0 -4 -6 -5 -14 -2 -8 3 -12 12
-9 21 5 12 7 12 14 1 5 -7 9 -16 9 -20z"/>
<path d="M1660 2171 c-8 -16 -6 -22 9 -31 16 -8 22 -6 31 9 8 16 6 22 -9 31
-16 8 -22 6 -31 -9z m31 -6 c5 4 6 -1 3 -9 -3 -8 -12 -12 -19 -10 -8 3 -11 13
-8 22 4 10 8 12 11 4 2 -7 8 -10 13 -7z"/>
<path d="M470 2169 c0 -5 4 -8 8 -5 4 2 14 1 22 -5 13 -7 13 -9 0 -10 -8 -1
-19 -1 -24 0 -5 1 -3 -5 4 -14 13 -16 15 -15 27 1 12 16 11 21 -4 31 -21 16
-33 17 -33 2z"/>
<path d="M1340 2176 c0 -3 9 -10 20 -16 11 -6 20 -8 20 -6 0 3 -9 10 -20 16
-11 6 -20 8 -20 6z"/>
<path d="M655 2140 c-9 -16 -13 -30 -11 -30 3 0 12 14 21 30 9 17 13 30 11 30
-3 0 -12 -13 -21 -30z"/>
<path d="M675 2128 c-11 -22 -11 -27 -2 -16 8 10 17 15 21 11 4 -4 4 1 0 12
-7 18 -6 18 9 7 13 -11 14 -17 5 -32 -7 -10 -16 -16 -22 -13 -5 3 -6 1 -2 -5
10 -16 11 -15 29 12 15 22 15 25 -3 41 -18 16 -19 15 -35 -17z"/>
<path d="M850 2140 c-6 -11 -8 -20 -6 -20 3 0 10 9 16 20 6 11 8 20 6 20 -3 0
-10 -9 -16 -20z"/>
<path d="M1710 2140 c-6 -11 -8 -20 -6 -20 3 0 10 9 16 20 6 11 8 20 6 20 -3
0 -10 -9 -16 -20z"/>
<path d="M521 2132 c-7 -14 -6 -19 3 -19 6 0 13 9 13 19 1 10 0 18 -2 18 -2 0
-9 -8 -14 -18z"/>
<path d="M616 2141 c-4 -5 -2 -12 3 -15 5 -4 12 -2 15 3 4 5 2 12 -3 15 -5 4
-12 2 -15 -3z"/>
<path d="M1730 2130 c-6 -11 -8 -20 -6 -20 3 0 10 9 16 20 6 11 8 20 6 20 -3
0 -10 -9 -16 -20z"/>
<path d="M866 2123 c-4 -11 -1 -11 14 -3 24 13 25 17 5 17 -8 0 -16 -6 -19
-14z"/>
<path d="M1410 2138 c0 -2 9 -11 20 -21 11 -9 20 -13 20 -7 0 5 -9 14 -20 20
-11 6 -20 9 -20 8z"/>
<path d="M562 2123 c10 -3 15 -10 11 -19 -5 -13 -7 -13 -14 -2 -6 9 -9 9 -9 1
0 -21 19 -24 29 -5 12 22 5 33 -18 31 -13 -1 -13 -2 1 -6z"/>
<path d="M751 2119 c15 -11 14 -14 -3 -31 -18 -18 -17 -38 3 -38 6 0 7 9 4 21
-5 13 -3 19 3 15 5 -3 12 1 16 9 3 9 -3 19 -17 25 -18 8 -19 8 -6 -1z"/>
<path d="M590 2090 c-6 -11 -8 -20 -6 -20 3 0 10 9 16 20 6 11 8 20 6 20 -3 0
-10 -9 -16 -20z"/>
<path d="M720 2090 c-6 -11 -8 -20 -6 -20 3 0 10 9 16 20 6 11 8 20 6 20 -3 0
-10 -9 -16 -20z"/>
<path d="M610 2078 c-10 -21 -10 -21 3 -6 8 10 18 14 22 10 5 -4 5 -1 1 6 -10
17 -14 15 -26 -10z"/>
<path d="M800 2068 c-10 -20 -9 -21 2 -6 10 12 19 13 31 7 9 -6 17 -8 17 -5 0
3 -9 10 -20 16 -16 8 -21 6 -30 -12z"/>
<path d="M644 2066 c-3 -9 -11 -13 -17 -9 -6 4 -7 1 -2 -7 6 -10 11 -9 23 6
14 18 14 18 9 -4 -3 -12 -1 -20 4 -16 12 7 11 31 -1 39 -6 3 -13 -1 -16 -9z"/>
<path d="M680 2040 c-8 -15 -6 -21 9 -30 17 -8 22 -6 31 12 9 20 9 21 -2 7
-15 -19 -39 -14 -31 7 3 7 10 11 16 7 6 -3 7 -1 3 5 -10 16 -14 15 -26 -8z"/>
<path d="M867 2054 c-4 -4 -7 -123 -7 -265 l0 -257 116 -67 116 -68 -48 -26
c-26 -14 -49 -31 -51 -37 -4 -12 289 -188 311 -187 6 0 34 14 62 30 l51 31 68
-40 c38 -21 74 -37 82 -34 10 4 13 57 13 265 l0 259 -337 195 c-360 208 -365
211 -376 201z m396 -259 l277 -160 0 -238 0 -238 -30 16 c-18 9 -28 20 -24 27
5 8 1 9 -10 5 -9 -4 -15 -3 -12 2 3 5 -1 12 -10 15 -9 4 -13 2 -8 -5 4 -7 -1
-7 -15 1 -30 16 -218 125 -399 232 l-152 91 2 44 c2 50 21 54 25 4 2 -22 -1
-30 -9 -25 -7 5 -8 3 -3 -5 19 -32 25 20 23 209 -3 171 -5 204 -18 207 -10 3
-11 2 -4 -4 6 -4 12 -29 13 -55 1 -39 -2 -46 -14 -42 -11 5 -15 18 -14 43 1
20 -1 51 -5 70 l-8 33 59 -33 c33 -19 184 -106 336 -194z m-288 195 c3 -6 -1
-7 -9 -4 -18 7 -21 14 -7 14 6 0 13 -4 16 -10z m-67 -139 c3 -8 -1 -12 -9 -9
-7 2 -15 10 -17 17 -3 8 1 12 9 9 7 -2 15 -10 17 -17z m312 -7 c0 -2 -9 0 -20
6 -11 6 -20 13 -20 16 0 2 9 0 20 -6 11 -6 20 -13 20 -16z m-310 -30 c0 -8 -6
-11 -15 -8 -8 4 -15 12 -15 20 0 8 6 11 15 8 8 -4 15 -12 15 -20z m360 0 c0
-2 -9 0 -20 6 -11 6 -20 13 -20 16 0 2 9 0 20 -6 11 -6 20 -13 20 -16z m-362
-67 c2 -39 0 -46 -13 -41 -11 5 -15 19 -13 50 2 59 22 52 26 -9z m432 27 c0
-2 -9 0 -20 6 -11 6 -20 13 -20 16 0 2 9 0 20 -6 11 -6 20 -13 20 -16z m120
-70 c0 -2 -9 0 -20 6 -11 6 -20 13 -20 16 0 2 9 0 20 -6 11 -6 20 -13 20 -16z
m-552 -23 c3 -8 -1 -12 -9 -9 -7 2 -15 10 -17 17 -3 8 1 12 9 9 7 -2 15 -10
17 -17z m2 -37 c0 -8 -6 -11 -15 -8 -8 4 -15 12 -15 20 0 8 6 11 15 8 8 -4 15
-12 15 -20z m220 -312 c49 -28 53 -22 5 8 -34 21 -46 40 -24 40 6 0 55 -26
110 -57 79 -47 99 -62 99 -81 0 -20 3 -21 20 -12 14 8 26 8 41 -1 24 -12 22
-15 -42 -49 l-36 -19 -139 79 c-76 44 -140 84 -142 89 -2 6 8 13 22 17 13 3
28 13 32 22 6 14 8 15 11 2 2 -8 21 -25 43 -38z"/>
<path d="M956 1934 c18 -15 18 -15 -3 -9 -22 6 -23 4 -23 -47 0 -30 5 -59 11
-65 8 -8 8 -17 0 -31 -20 -38 -13 -60 29 -83 22 -13 40 -29 40 -37 0 -8 8 -21
18 -28 26 -20 -4 -17 -36 3 -15 10 -30 22 -33 27 -9 11 -29 -26 -29 -53 0 -23
48 -60 87 -67 16 -3 30 -9 31 -15 2 -5 7 -9 11 -9 11 0 172 -98 196 -119 25
-22 101 -61 120 -61 9 0 15 -14 17 -42 2 -35 7 -43 22 -41 10 0 40 -12 67 -28
60 -35 65 -29 7 8 -59 39 -68 48 -58 63 7 11 16 8 44 -14 20 -15 42 -26 49
-23 7 2 -19 23 -56 47 -80 50 -83 65 -5 21 30 -17 59 -31 64 -31 5 0 -15 14
-45 30 -29 16 -59 34 -66 40 -14 12 -19 84 -5 75 6 -3 10 -13 10 -21 0 -8 5
-14 11 -14 5 0 7 5 3 11 -3 6 11 0 32 -13 65 -41 64 -40 58 -24 -3 9 -33 30
-65 48 -32 18 -59 36 -59 39 0 4 28 -8 63 -27 l63 -33 2 24 c1 14 -3 25 -8 25
-24 0 -89 50 -87 68 1 18 2 18 34 -1 18 -10 33 -23 33 -28 0 -5 7 -9 17 -9 26
0 -13 38 -69 66 -27 13 -48 28 -48 33 0 5 26 -6 57 -25 53 -31 73 -40 73 -30
0 2 -19 13 -42 25 -49 24 -93 59 -85 67 3 3 15 -3 27 -14 12 -11 35 -26 51
-32 16 -7 29 -16 29 -21 0 -5 5 -9 10 -9 21 0 9 16 -26 35 -54 29 -74 49 -64
65 7 11 15 8 44 -13 39 -30 55 -35 35 -11 -17 21 -86 55 -117 59 -13 1 -27 7
-31 13 -3 6 -19 14 -34 17 -16 4 -32 17 -37 29 -8 21 -238 159 -266 159 -8 0
-14 4 -14 8 0 9 -52 39 -66 39 -4 0 1 -7 12 -16z m40 -27 c5 -4 0 -5 -11 -2
-16 6 -15 3 5 -14 14 -11 21 -21 17 -21 -12 0 -67 33 -67 40 0 9 47 6 56 -3z
m123 -64 c2 -2 2 -5 -1 -8 -7 -7 -98 45 -98 56 0 8 74 -28 99 -48z m-139 27
c16 -12 20 -20 11 -20 -11 0 -9 -4 5 -15 13 -10 14 -14 5 -15 -11 0 -11 -3 0
-17 13 -15 12 -15 -18 0 -36 19 -51 37 -31 37 9 0 9 3 2 8 -11 7 -15 42 -5 42
3 0 17 -9 31 -20z m80 -45 c11 -13 10 -14 -6 -9 -13 5 -16 4 -9 -3 11 -10 249
-150 302 -177 20 -10 31 -23 30 -35 0 -11 -6 -17 -14 -14 -7 3 -13 0 -13 -6 0
-6 9 -11 19 -11 33 0 51 -11 51 -31 0 -10 -4 -19 -10 -19 -5 0 -10 10 -10 22
0 12 -3 18 -7 14 -4 -4 -6 -24 -5 -44 l2 -37 -23 28 c-13 16 -37 37 -53 48
-16 10 -24 19 -17 19 6 0 15 -4 18 -10 8 -12 35 -13 35 -1 0 5 -61 43 -136 86
-81 47 -133 83 -130 90 2 7 -12 20 -31 29 -20 9 -33 19 -30 23 3 3 22 -5 42
-17 20 -12 39 -20 41 -17 3 3 -14 15 -38 28 -54 27 -52 25 -37 43 17 19 14 19
29 1z m216 -82 c-3 -3 -22 4 -42 16 -28 17 -39 19 -45 10 -5 -9 19 -28 77 -62
47 -27 83 -51 80 -54 -2 -3 -52 23 -111 57 -60 36 -102 66 -96 70 7 4 1 11
-14 18 -15 7 -31 10 -36 7 -5 -3 -6 1 -3 9 5 12 11 13 24 6 25 -14 30 -13 24
5 -3 8 28 -6 71 -31 42 -26 74 -49 71 -51z m-208 -22 c2 -13 12 -26 23 -28 10
-3 19 -9 19 -14 0 -5 5 -9 11 -9 15 0 158 -83 159 -92 0 -7 -104 45 -185 92
-53 31 -81 40 -49 15 10 -8 14 -15 7 -15 -13 0 -43 27 -43 39 0 4 5 12 11 18
8 8 2 17 -25 35 -53 34 -43 41 17 10 37 -19 53 -34 55 -51z m-63 9 c3 -5 1
-10 -6 -10 -8 0 -8 -4 1 -15 9 -10 9 -15 1 -15 -6 0 -11 5 -11 10 0 6 -6 10
-14 10 -7 0 -20 7 -27 17 -13 15 -12 15 9 4 13 -7 26 -11 28 -8 2 2 -7 10 -21
17 -14 7 -25 17 -25 22 0 10 56 -17 65 -32z m280 -10 c3 -6 -1 -7 -9 -4 -18 7
-21 14 -7 14 6 0 13 -4 16 -10z m59 -31 c20 -12 36 -25 36 -30 0 -9 -67 28
-76 42 -8 14 2 11 40 -12z m76 -35 c0 -8 -4 -14 -10 -14 -5 0 -10 9 -10 21 0
11 5 17 10 14 6 -3 10 -13 10 -21z m-372 -2 c2 -7 -2 -10 -12 -6 -9 3 -16 11
-16 16 0 13 23 5 28 -10z m79 -13 c35 -20 51 -34 43 -39 -9 -6 -9 -9 0 -15 7
-4 15 -3 19 3 10 17 150 -67 148 -90 -2 -23 -2 -23 -43 3 -42 25 -45 35 -4 14
46 -24 49 -17 5 10 -44 27 -60 32 -49 13 5 -7 2 -9 -9 -5 -9 3 -17 2 -19 -4
-3 -8 -158 75 -158 85 0 6 63 -1 83 -9 29 -12 19 4 -14 21 -21 10 -34 12 -38
5 -9 -14 -28 0 -28 22 0 22 0 22 64 -14z m-146 -19 c13 -10 19 -19 14 -20 -6
0 -16 5 -23 12 -6 6 -14 9 -18 6 -3 -4 8 -14 26 -23 18 -9 30 -19 27 -21 -3
-3 -19 2 -35 10 -20 10 -30 23 -29 36 2 25 9 25 38 0z m140 -83 l24 -18 -25 6
c-22 6 -21 4 8 -14 39 -25 49 -27 31 -4 -18 21 -12 19 114 -52 59 -33 107 -64
107 -68 0 -5 -29 7 -64 27 -67 38 -81 43 -71 26 10 -17 0 -12 -105 50 -56 33
-106 60 -111 60 -5 0 -9 5 -9 11 0 6 16 1 36 -10 20 -12 39 -20 41 -17 3 2
-13 14 -36 26 -23 11 -41 25 -41 31 0 10 52 -18 101 -54z m230 -93 l24 -27
-40 23 c-63 37 -95 61 -95 70 0 14 83 -37 111 -66z m69 59 c0 -5 23 -21 51
-36 59 -34 61 -46 3 -18 -41 20 -85 61 -66 61 7 0 12 -3 12 -7z m-42 -41 c2
-7 -2 -10 -12 -6 -9 3 -16 11 -16 16 0 13 23 5 28 -10z m-50 -66 c28 -16 52
-33 52 -38 0 -10 -87 37 -110 60 -19 18 -7 14 58 -22z m92 -92 c0 -8 -4 -14
-10 -14 -5 0 -10 9 -10 21 0 11 5 17 10 14 6 -3 10 -13 10 -21z m0 -34 c0 -5
-4 -10 -10 -10 -5 0 -10 5 -10 10 0 6 5 10 10 10 6 0 10 -4 10 -10z"/>
<path d="M955 1860 c3 -5 11 -10 16 -10 6 0 7 5 4 10 -3 6 -11 10 -16 10 -6 0
-7 -4 -4 -10z"/>
<path d="M965 1830 c3 -5 11 -10 16 -10 6 0 7 5 4 10 -3 6 -11 10 -16 10 -6 0
-7 -4 -4 -10z"/>
<path d="M1102 1741 c-13 -8 0 -17 138 -94 19 -10 50 -28 67 -39 22 -13 38
-16 49 -10 12 7 -12 25 -110 80 -69 40 -127 72 -128 72 -2 0 -9 -4 -16 -9z
m53 -29 c-3 -3 -11 0 -18 7 -9 10 -8 11 6 5 10 -3 15 -9 12 -12z m105 -58 c0
-2 -13 2 -30 11 -16 9 -30 18 -30 21 0 2 14 -2 30 -11 17 -9 30 -18 30 -21z
m70 -40 c0 -2 -13 2 -30 11 -16 9 -30 18 -30 21 0 2 14 -2 30 -11 17 -9 30
-18 30 -21z"/>
<path d="M1154 1795 c11 -8 25 -15 30 -15 6 0 2 7 -8 15 -11 8 -25 15 -30 15
-6 0 -2 -7 8 -15z"/>
<path d="M1155 1770 c3 -5 11 -10 16 -10 6 0 7 5 4 10 -3 6 -11 10 -16 10 -6
0 -7 -4 -4 -10z"/>
<path d="M1100 1607 c0 -14 109 -67 125 -60 17 6 17 7 -1 20 -10 7 -22 13 -28
13 -5 0 -1 -7 10 -15 33 -25 6 -17 -51 16 -30 17 -55 29 -55 26z"/>
<path d="M1198 1469 c18 -12 35 -19 38 -16 3 3 -8 13 -25 21 -43 23 -52 19
-13 -5z"/>
<path d="M1410 1395 c0 -6 106 -75 115 -75 18 0 -1 20 -35 35 -22 10 -45 24
-51 32 -11 13 -29 18 -29 8z"/>
<path d="M1180 1306 c0 -3 14 -12 30 -21 17 -9 30 -13 30 -11 0 3 -13 12 -30
21 -16 9 -30 13 -30 11z"/>
<path d="M1250 1266 c0 -3 14 -12 30 -21 17 -9 30 -13 30 -11 0 3 -13 12 -30
21 -16 9 -30 13 -30 11z"/>
<path d="M730 2008 c-11 -23 -11 -23 5 -3 16 20 17 20 13 -2 -2 -12 2 -21 7
-20 6 1 9 8 7 15 -2 8 1 11 7 7 6 -3 11 -4 11 -1 0 3 -9 10 -20 16 -16 8 -21
6 -30 -12z"/>
<path d="M800 1970 c-8 -16 -6 -21 12 -30 20 -10 21 -9 6 2 -12 10 -13 19 -7
31 6 9 8 17 5 17 -3 0 -10 -9 -16 -20z"/>
<path d="M1240 1976 c0 -2 7 -7 16 -10 8 -3 12 -2 9 4 -6 10 -25 14 -25 6z"/>
<path d="M1350 1916 c0 -3 9 -10 20 -16 11 -6 20 -8 20 -6 0 3 -9 10 -20 16
-11 6 -20 8 -20 6z"/>
<path d="M1794 1818 c0 -17 2 -17 11 -4 10 14 14 14 36 -1 22 -15 23 -15 8 1
-24 25 -55 28 -55 4z"/>
<path d="M1810 1789 c0 -5 -4 -8 -8 -5 -4 2 -8 -4 -8 -15 0 -19 1 -19 13 -3
13 18 17 34 8 34 -3 0 -5 -5 -5 -11z"/>
<path d="M1870 1790 c0 -14 38 -32 45 -21 3 6 -3 15 -14 20 -24 14 -31 14 -31
1z"/>
<path d="M1840 1769 c-7 -11 -9 -23 -6 -27 3 -3 6 0 6 7 0 7 4 10 8 7 4 -2 9
4 9 15 2 25 -4 24 -17 -2z"/>
<path d="M2310 1768 l-32 -23 1 -154 c1 -85 4 -158 7 -162 6 -10 249 -149 260
-149 5 0 22 10 37 23 l28 22 0 153 c0 84 -2 156 -5 161 -5 7 -251 151 -259
151 -2 0 -19 -10 -37 -22z m130 -57 c36 -18 67 -37 70 -40 3 -4 25 -17 48 -28
41 -20 42 -22 23 -33 -20 -10 -21 -19 -21 -155 0 -80 -3 -145 -7 -145 -10 0
-156 73 -163 81 -3 3 -24 18 -48 33 -42 26 -43 28 -43 79 1 29 1 59 0 67 -2
59 6 160 14 160 5 0 23 -10 40 -22 28 -20 57 -32 57 -23 0 2 -21 15 -46 30
-32 19 -43 30 -34 35 15 9 21 7 110 -39z m145 -257 c0 -63 -3 -118 -7 -120 -4
-3 -8 52 -8 122 0 70 3 124 7 121 3 -4 7 -59 8 -123z"/>
<path d="M2440 1661 c14 -11 30 -21 36 -21 6 0 17 -6 23 -14 6 -8 21 -16 33
-19 31 -8 11 6 -57 43 -38 20 -51 25 -35 11z"/>
<path d="M2336 1537 c22 -23 41 -38 43 -34 2 5 -9 21 -24 37 l-26 27 25 -4
c15 -3 26 -1 26 6 0 6 -18 11 -41 11 l-42 0 39 -43z"/>
<path d="M2407 1521 c-19 -56 -20 -61 -8 -61 11 0 51 96 43 104 -12 12 -18 5
-35 -43z"/>
<path d="M2450 1534 c0 -6 11 -21 25 -34 30 -28 32 -44 6 -35 -11 3 -22 2 -25
-3 -3 -5 8 -12 25 -16 41 -8 49 -8 49 2 -1 12 -80 98 -80 86z"/>
<path d="M778 1744 c-38 -20 -36 -28 2 -9 17 9 30 18 30 20 0 7 -1 6 -32 -11z"/>
<path d="M1946 1752 c-3 -5 1 -9 9 -9 8 0 12 4 9 9 -3 4 -7 8 -9 8 -2 0 -6 -4
-9 -8z"/>
<path d="M1810 1739 c0 -5 -6 -7 -12 -4 -7 4 -2 -3 11 -14 12 -12 27 -19 31
-16 5 3 10 -1 13 -7 2 -7 4 0 4 16 0 25 -2 27 -11 15 -13 -19 -37 -13 -29 7 3
8 2 14 -1 14 -3 0 -6 -5 -6 -11z"/>
<path d="M1896 1723 c4 -17 1 -23 -10 -23 -22 0 -20 -17 4 -30 16 -9 22 -6 35
20 8 16 13 30 11 30 -3 0 -11 -11 -18 -25 -10 -18 -17 -22 -28 -15 -9 6 -10
10 -3 10 7 0 17 10 24 21 6 13 7 19 1 15 -6 -3 -13 0 -16 6 -3 7 -3 3 0 -9z"/>
<path d="M1990 1710 c-6 -11 -8 -20 -6 -20 3 0 10 9 16 20 6 11 8 20 6 20 -3
0 -10 -9 -16 -20z"/>
<path d="M663 1677 c-40 -24 -76 -47 -80 -51 -10 -11 104 52 138 76 42 30 16
18 -58 -25z"/>
<path d="M1962 1713 c-7 -3 -19 -19 -28 -36 -13 -28 -13 -29 0 -12 8 11 23 28
32 38 18 18 18 19 -4 10z"/>
<path d="M1993 1666 c-18 -37 -31 -52 -40 -49 -11 4 -12 8 -3 13 8 5 8 10 2
14 -5 3 -12 -1 -16 -9 -3 -9 3 -19 14 -25 18 -9 23 -4 47 44 15 30 31 52 36
49 6 -3 7 -1 3 5 -11 19 -15 15 -43 -42z"/>
<path d="M2784 1697 c-2 -7 -3 -62 -2 -123 l3 -109 5 123 c3 67 4 122 2 122
-1 0 -5 -6 -8 -13z"/>
<path d="M2049 1648 c-12 -24 -29 -48 -37 -54 -14 -10 -13 -13 6 -23 19 -10
23 -8 41 26 11 21 20 31 21 21 0 -32 17 -27 34 10 13 29 13 33 1 18 -8 -11
-15 -25 -15 -30 0 -6 -5 -4 -10 4 -12 19 -13 33 -1 26 5 -3 11 1 15 9 3 8 1
17 -4 20 -5 3 -23 -20 -39 -52 -17 -32 -30 -52 -31 -45 0 7 11 35 25 62 14 28
23 50 20 50 -2 0 -14 -19 -26 -42z"/>
<path d="M2850 1676 c0 -3 9 -10 20 -16 11 -6 20 -8 20 -6 0 3 -9 10 -20 16
-11 6 -20 8 -20 6z"/>
<path d="M1790 1659 c0 -5 5 -7 10 -4 6 3 10 8 10 11 0 2 -4 4 -10 4 -5 0 -10
-5 -10 -11z"/>
<path d="M2030 1661 c0 -7 -4 -10 -8 -7 -5 3 -16 -12 -26 -32 -12 -27 -12 -31
-2 -17 8 11 23 28 32 37 10 10 14 21 11 25 -4 3 -7 1 -7 -6z"/>
<path d="M1814 1645 c-3 -8 -11 -12 -18 -9 -6 3 0 -4 13 -15 12 -12 27 -19 31
-16 5 3 10 -1 13 -7 2 -7 4 0 4 15 1 33 -33 58 -43 32z m29 -21 c-7 -19 -10
-18 -16 5 -3 13 -1 18 9 14 7 -2 10 -11 7 -19z"/>
<path d="M2900 1646 c0 -3 9 -10 20 -16 11 -6 20 -8 20 -6 0 3 -9 10 -20 16
-11 6 -20 8 -20 6z"/>
<path d="M2114 1597 c-15 -31 -51 -50 -40 -20 8 21 -2 15 -15 -8 -8 -15 -8
-19 0 -15 6 4 11 1 11 -6 0 -9 3 -9 10 2 9 13 10 13 10 0 1 -8 11 4 23 28 13
24 27 39 32 35 4 -4 5 -2 1 5 -11 18 -15 15 -32 -21z"/>
<path d="M537 1606 c-3 -8 -23 -18 -44 -22 -51 -9 -108 -39 -127 -66 -22 -31
-20 -81 4 -128 18 -35 25 -40 56 -40 27 0 43 8 67 32 18 18 37 32 44 33 6 0
21 10 33 23 11 12 25 22 30 22 14 0 31 66 24 95 -4 15 -21 35 -38 46 -37 23
-42 23 -49 5z m61 -75 c3 -25 -4 -38 -32 -65 -19 -19 -44 -37 -55 -41 -12 -3
-21 -10 -21 -15 0 -10 -52 -40 -69 -40 -16 0 -42 44 -45 77 -7 58 26 89 121
113 23 6 45 15 49 21 11 19 49 -16 52 -50z"/>
<path d="M2168 1601 c11 -7 10 -12 -6 -27 -10 -11 -25 -30 -31 -44 -11 -24
-11 -24 3 -6 9 11 16 24 16 29 0 4 4 6 9 3 10 -6 32 39 24 48 -4 3 -11 6 -17
6 -6 0 -5 -4 2 -9z"/>
<path d="M2970 1606 c0 -2 8 -10 18 -17 15 -13 16 -12 3 4 -13 16 -21 21 -21
13z"/>
<path d="M1870 1590 c0 -5 3 -9 8 -9 21 4 31 -3 26 -16 -5 -13 -9 -13 -22 -3
-12 10 -14 10 -8 1 4 -7 16 -17 26 -23 16 -8 21 -6 31 12 12 22 11 22 -6 8
-17 -14 -18 -13 -12 2 4 12 0 21 -13 28 -24 13 -30 13 -30 0z"/>
<path d="M2119 1559 c-11 -23 -16 -38 -11 -35 5 3 15 19 22 36 7 16 17 27 23
23 6 -3 7 -1 3 5 -11 18 -14 15 -37 -29z"/>
<path d="M2183 1555 c-9 -19 -20 -32 -25 -29 -4 3 -5 -3 -1 -12 5 -13 3 -15
-7 -9 -9 5 -11 4 -6 -4 10 -16 21 -7 36 28 9 23 17 28 36 25 13 -2 24 -1 24 4
0 17 -13 22 -28 9 -13 -10 -15 -9 -9 6 11 30 -3 18 -20 -18z"/>
<path d="M1945 1550 c-4 -6 -3 -10 2 -9 22 4 32 -2 27 -16 -4 -8 -4 -15 -1
-15 3 0 7 7 11 15 6 18 -29 41 -39 25z"/>
<path d="M1793 1518 c-1 -10 0 -18 2 -18 2 0 9 8 14 18 7 14 6 19 -3 19 -6 0
-13 -9 -13 -19z"/>
<path d="M2185 1510 c-9 -16 -13 -30 -11 -30 3 0 12 14 21 30 9 17 13 30 11
30 -3 0 -12 -13 -21 -30z"/>
<path d="M1831 1523 c3 -21 -2 -33 -13 -27 -7 5 -8 3 -3 -6 6 -10 11 -10 20 3
7 9 16 13 21 9 4 -4 2 1 -5 11 -14 18 -22 22 -20 10z"/>
<path d="M1930 1519 c0 -5 -5 -7 -12 -3 -7 4 -8 3 -4 -5 6 -8 12 -9 20 -2 7 6
17 7 21 3 5 -4 5 -1 1 6 -9 15 -26 16 -26 1z"/>
<path d="M1985 1500 c-9 -16 -13 -30 -11 -30 3 0 12 14 21 30 9 17 13 30 11
30 -3 0 -12 -13 -21 -30z"/>
<path d="M2216 1521 c-4 -5 -2 -12 3 -15 5 -4 12 -2 15 3 4 5 2 12 -3 15 -5 4
-12 2 -15 -3z"/>
<path d="M2026 1507 c3 -10 9 -15 12 -12 3 3 0 11 -7 18 -10 9 -11 8 -5 -6z"/>
<path d="M1870 1490 c0 -5 3 -9 8 -9 21 4 31 -3 26 -16 -5 -13 -9 -13 -23 -3
-14 12 -15 11 -2 -5 14 -18 15 -18 28 -1 12 16 11 21 -4 31 -20 16 -33 17 -33
3z"/>
<path d="M1946 1488 c3 -5 10 -6 15 -3 13 9 11 12 -6 12 -8 0 -12 -4 -9 -9z"/>
<path d="M2000 1480 c-8 -15 -6 -21 9 -30 17 -8 22 -6 31 12 9 20 9 21 -2 7
-19 -23 -41 -13 -28 12 6 10 8 19 6 19 -3 0 -10 -9 -16 -20z"/>
<path d="M2204 1492 c3 -5 0 -13 -6 -15 -9 -4 -10 -6 -1 -6 17 -1 25 16 12 25
-7 4 -9 3 -5 -4z"/>
<path d="M1845 1480 c-3 -5 -1 -10 4 -10 6 0 11 5 11 10 0 6 -2 10 -4 10 -3 0
-8 -4 -11 -10z"/>
<path d="M2055 1460 c-9 -16 -13 -30 -11 -30 3 0 12 14 21 30 9 17 13 30 11
30 -3 0 -12 -13 -21 -30z"/>
<path d="M1605 1472 c9 -9 114 -72 288 -171 31 -18 57 -30 57 -28 0 3 -69 45
-152 93 -84 48 -164 94 -178 103 -14 8 -20 10 -15 3z"/>
<path d="M228 1425 c-42 -25 -79 -49 -82 -54 -6 -9 148 80 161 93 13 13 -5 4
-79 -39z"/>
<path d="M1920 1450 c-6 -11 -8 -20 -6 -20 3 0 10 9 16 20 6 11 8 20 6 20 -3
0 -10 -9 -16 -20z"/>
<path d="M1940 1441 c-8 -16 -6 -22 9 -31 16 -8 22 -6 31 9 8 16 6 22 -9 31
-16 8 -22 6 -31 -9z m34 -16 c-3 -8 -12 -11 -19 -9 -8 3 -11 12 -9 19 3 8 12
11 19 9 8 -3 11 -12 9 -19z"/>
<path d="M2113 1444 c-3 -8 -1 -20 5 -26 8 -8 13 -7 18 6 5 14 9 15 15 4 13
-19 11 -30 -3 -23 -7 4 -4 0 6 -9 20 -16 36 -13 36 7 0 7 -4 6 -11 -3 -9 -12
-10 -11 -6 8 7 31 -27 50 -43 25 -10 -16 -11 -15 -7 5 6 25 -1 30 -10 6z"/>
<path d="M2076 1439 c2 -4 -2 -10 -8 -12 -8 -4 -9 -6 -2 -6 6 -1 17 5 23 12 8
10 7 14 -4 14 -8 0 -12 -4 -9 -8z"/>
<path d="M2010 1400 c-8 -15 -6 -21 9 -30 17 -8 22 -6 31 12 9 20 9 21 -2 7
-15 -19 -39 -14 -31 7 3 7 10 11 16 7 6 -3 7 -1 3 5 -10 16 -14 15 -26 -8z"/>
<path d="M572 1370 c-7 -11 -8 -20 -3 -20 9 0 24 30 18 36 -1 2 -8 -6 -15 -16z"/>
<path d="M2060 1370 c-6 -11 -8 -20 -6 -20 3 0 10 9 16 20 6 11 8 20 6 20 -3
0 -10 -9 -16 -20z"/>
<path d="M2910 1386 c0 -3 9 -10 20 -16 11 -6 20 -8 20 -6 0 3 -9 10 -20 16
-11 6 -20 8 -20 6z"/>
<path d="M2080 1361 c-6 -12 -6 -22 -1 -26 6 -3 15 3 21 14 6 12 6 22 1 26 -6
3 -15 -3 -21 -14z"/>
<path d="M2212 1371 c-11 -6 -10 -10 4 -15 20 -8 32 0 18 14 -5 5 -15 5 -22 1z"/>
<path d="M2113 1344 c-3 -8 -1 -20 5 -26 8 -8 13 -7 17 5 4 9 13 13 21 10 12
-4 12 -7 -2 -18 -11 -8 -13 -14 -6 -19 6 -3 16 2 22 13 8 16 7 22 -9 31 -16 8
-22 6 -31 -7 -10 -16 -11 -15 -7 5 6 25 -1 30 -10 6z"/>
<path d="M140 1298 c0 -31 5 -39 36 -57 49 -29 55 -26 14 8 -19 16 -32 33 -27
37 4 4 16 -1 26 -10 11 -10 25 -16 32 -14 7 2 -5 15 -27 28 -21 13 -42 29 -46
34 -4 6 -8 -5 -8 -26z"/>
<path d="M313 1300 c-37 -18 -64 -40 -71 -55 -16 -35 -15 -85 3 -115 8 -14 16
-29 19 -35 3 -5 8 -63 11 -128 l7 -117 64 -36 c35 -20 64 -40 64 -44 0 -5 18
-60 41 -123 43 -123 56 -137 123 -137 44 0 140 34 199 70 27 17 49 30 50 30 1
0 -2 -53 -8 -117 l-10 -118 -35 0 c-34 0 -35 1 -32 35 6 79 12 95 43 113 18
10 29 20 26 23 -7 8 -67 -24 -67 -36 0 -5 -29 -26 -64 -47 l-64 -38 1 -65 c2
-58 5 -66 27 -77 26 -13 126 -18 154 -7 11 4 16 19 16 48 0 23 5 47 11 53 7 7
12 56 13 125 l1 113 -29 -2 c-16 -1 -36 -8 -45 -16 -62 -53 -228 -82 -255 -45
-7 10 -30 67 -51 128 -37 110 -38 112 -92 147 -59 40 -59 38 -73 178 -5 55
-13 120 -17 145 -6 43 -7 44 -14 15 -6 -27 -7 -25 -8 15 0 34 2 41 10 30 8
-12 9 -11 4 6 -3 14 1 28 12 39 18 18 89 52 119 56 31 5 96 -11 124 -30 31
-21 77 -41 93 -40 7 0 1 5 -12 10 -32 13 -26 16 37 23 46 5 52 3 52 -13 0 -10
-11 -26 -25 -35 -14 -9 -25 -21 -25 -27 0 -12 30 -56 84 -122 34 -42 42 -47
73 -45 19 1 37 6 39 10 3 4 14 8 25 8 10 0 27 9 36 20 10 11 21 20 26 20 11 0
87 63 87 73 0 4 -8 3 -19 -2 -10 -6 -21 -7 -25 -4 -3 3 -6 1 -6 -6 0 -8 -7
-10 -19 -6 -11 3 -22 1 -26 -4 -3 -6 0 -8 8 -5 8 3 14 -2 14 -11 0 -23 -11
-19 -105 36 -98 58 -108 65 -72 53 28 -8 122 -13 114 -5 -2 3 6 11 18 18 23
14 23 14 1 8 -15 -4 -28 0 -40 14 -10 12 -27 21 -38 21 -23 0 -69 -29 -47 -30
28 0 9 -15 -20 -15 -62 0 -43 -27 59 -84 l97 -54 -53 -19 c-30 -10 -60 -19
-67 -20 -7 -2 -40 33 -73 77 l-60 80 31 8 c28 8 30 11 25 44 -4 20 -10 40 -15
45 -4 4 -38 -1 -74 -11 -61 -17 -68 -18 -80 -4 -41 50 -139 56 -225 13z m552
-78 c-2 -3 -21 -6 -42 -8 -25 -2 -32 0 -23 6 8 5 24 7 35 4 16 -4 17 -3 5 5
-8 6 -23 8 -32 5 -10 -3 -18 0 -18 6 0 6 5 8 10 5 6 -3 10 -1 10 5 0 7 12 4
30 -6 16 -10 27 -20 25 -22z m-147 -792 c1 -29 -3 -42 -14 -47 -13 -5 -9 -10
17 -24 19 -9 42 -15 51 -14 13 3 18 -3 18 -21 0 -16 -6 -24 -17 -25 -49 -3
-114 1 -123 6 -18 11 -10 45 13 55 l22 9 -23 0 c-35 1 -40 30 -8 58 15 13 31
21 36 18 4 -3 10 2 14 10 9 24 13 18 14 -25z"/>
<path d="M721 1321 c-10 -6 -2 -9 25 -8 21 0 48 -3 59 -8 18 -8 19 -7 6 8 -14
18 -67 23 -90 8z"/>
<path d="M2180 1300 c-6 -11 -8 -20 -6 -20 3 0 10 9 16 20 6 11 8 20 6 20 -3
0 -10 -9 -16 -20z"/>
<path d="M2200 1290 c-8 -15 -6 -21 9 -30 25 -13 31 -13 31 0 0 6 -3 9 -7 9
-22 -4 -32 3 -27 16 5 13 9 13 23 3 14 -12 15 -11 2 5 -17 21 -18 21 -31 -3z"/>
<path d="M836 1292 c-8 -13 20 -35 34 -27 6 4 9 1 8 -6 -2 -7 4 -14 12 -15 37
-3 41 -5 35 -14 -3 -5 0 -11 7 -12 29 -3 34 -5 60 -18 15 -8 27 -18 27 -22 1
-5 1 -11 1 -15 0 -5 5 -1 11 7 9 13 10 12 5 -3 -4 -14 -2 -17 12 -13 9 3 24 1
32 -4 10 -6 1 -8 -28 -5 -34 3 -44 0 -52 -16 -10 -17 -9 -18 15 -7 38 17 75
-3 75 -42 0 -27 -3 -30 -32 -30 -64 0 -64 -15 -2 -53 l59 -35 70 39 c39 21 71
44 73 51 1 8 -75 58 -191 125 -214 124 -222 128 -231 115z m292 -176 c15 5 15
4 2 -5 -23 -16 -30 -13 -29 12 1 16 3 17 6 5 3 -11 11 -15 21 -12z m49 -30
c-1 -6 4 -10 11 -8 8 1 11 -2 6 -9 -4 -8 1 -9 17 -5 23 7 23 6 4 -5 -11 -7
-22 -15 -25 -19 -6 -8 -66 -40 -75 -40 -3 0 -3 5 1 12 4 7 3 8 -5 4 -14 -9
-51 2 -51 15 0 6 8 8 18 5 9 -3 24 -1 32 5 12 9 11 10 -5 5 -16 -5 -15 -2 7
18 15 13 25 26 23 27 -2 2 7 5 20 5 14 1 23 -3 22 -10z"/>
<path d="M1960 1266 c0 -3 14 -12 30 -21 17 -9 30 -13 30 -11 0 3 -13 12 -30
21 -16 9 -30 13 -30 11z"/>
<path d="M2030 1227 c0 -3 41 -29 90 -58 144 -85 162 -65 -292 -329 -211 -122
-397 -224 -414 -227 -37 -6 -52 1 -333 164 -117 68 -227 131 -245 140 -29 15
-30 15 -17 0 7 -10 20 -17 27 -17 8 0 14 -4 14 -10 0 -5 11 -12 25 -16 14 -3
25 -10 25 -15 0 -5 3 -8 8 -7 4 1 32 -13 62 -32 31 -19 73 -44 95 -55 22 -11
42 -22 45 -25 18 -20 244 -140 264 -140 15 0 22 -21 10 -33 -5 -4 -98 41 -129
63 -5 4 -30 19 -55 32 -57 32 -343 198 -392 227 -21 13 -43 21 -49 19 -11 -4
525 -318 594 -349 20 -9 36 -10 61 -2 42 13 767 431 784 452 8 10 12 36 10 65
-3 55 11 42 -140 130 -27 15 -48 26 -48 23z m156 -212 c-11 -8 -24 -15 -29
-15 -5 0 -26 -13 -46 -28 -30 -24 -56 -38 -81 -45 -3 0 -14 -9 -24 -19 -11
-10 -24 -18 -28 -18 -5 0 -37 -17 -71 -39 -60 -37 -234 -137 -327 -189 -25
-13 -71 -40 -103 -59 -32 -19 -61 -32 -64 -29 -9 9 6 20 47 37 19 7 53 25 75
40 22 15 67 41 100 58 66 35 221 125 245 141 8 6 26 16 40 23 14 7 43 24 65
38 22 15 63 38 90 53 28 15 64 35 80 46 35 22 59 26 31 5z"/>
<path d="M895 1210 c-4 -6 -3 -10 2 -9 26 5 24 -4 -6 -20 l-33 -18 45 1 c25 1
43 5 40 10 -3 4 3 6 13 2 26 -8 53 9 29 18 -9 3 -21 3 -26 0 -6 -3 -21 1 -34
10 -15 10 -26 12 -30 6z m35 -30 c-8 -5 -19 -10 -25 -10 -5 0 -3 5 5 10 8 5
20 10 25 10 6 0 3 -5 -5 -10z"/>
<path d="M1752 1119 c-78 -44 -140 -84 -137 -89 3 -5 44 -32 91 -60 61 -35 90
-47 101 -41 12 6 -3 19 -65 52 -45 24 -82 47 -82 50 0 4 58 40 130 80 71 41
130 77 130 82 0 17 -32 3 -168 -74z"/>
<path d="M1945 1181 c-5 -9 32 -27 48 -23 4 1 7 -2 7 -8 0 -13 58 -42 64 -32
3 5 -13 19 -34 31 -22 12 -40 19 -40 14 0 -4 -5 0 -11 10 -11 19 -25 22 -34 8z"/>
<path d="M1917 1143 c-2 -10 -8 -27 -11 -38 -4 -11 2 -4 13 15 11 19 20 29 21
22 0 -7 5 -10 12 -6 8 5 9 2 5 -10 -4 -10 -3 -15 3 -11 6 3 10 0 10 -7 0 -9 3
-9 10 2 7 11 10 11 10 2 0 -7 5 -10 11 -6 8 4 9 -1 4 -17 -7 -23 -7 -24 9 -4
20 26 20 13 1 -28 -12 -23 -12 -27 -2 -15 8 10 17 15 20 11 4 -3 9 1 13 10 3
9 13 14 22 10 14 -4 15 -3 2 5 -8 6 -18 8 -22 6 -4 -3 -8 -1 -8 5 0 6 -13 17
-30 26 -16 9 -30 13 -30 10 0 -3 -9 4 -20 15 -25 25 -36 25 -43 3z"/>
<path d="M1874 1135 c-4 -8 -10 -12 -15 -9 -5 3 -12 -2 -15 -10 -3 -9 -10 -14
-14 -11 -5 3 -12 0 -16 -6 -4 -8 -3 -9 4 -5 14 9 15 -4 2 -24 -9 -13 -10 -13
-10 0 0 13 -1 13 -10 0 -8 -12 -10 -12 -11 5 0 11 -3 14 -6 7 -2 -6 -10 -9
-16 -6 -8 5 -9 3 -2 -4 6 -6 17 -12 25 -14 8 -2 19 -8 25 -14 5 -6 31 -24 57
-39 41 -23 49 -25 54 -11 3 9 10 13 15 10 5 -3 12 2 15 10 3 9 10 14 14 11 5
-3 12 0 16 6 5 8 3 9 -6 4 -9 -6 -12 -4 -8 6 17 42 17 50 -1 19 -11 -19 -21
-28 -21 -20 0 8 -9 -1 -20 -20 -11 -19 -19 -29 -20 -22 0 7 -5 10 -12 6 -7 -5
-9 -2 -6 7 16 39 17 51 3 25 -19 -33 -41 -22 -30 14 5 16 10 19 15 10 5 -8 9
-7 13 5 4 9 3 13 -3 10 -6 -3 -10 0 -10 7 -1 7 -9 -3 -20 -22 -11 -19 -19 -29
-20 -22 0 7 -4 10 -10 7 -14 -9 -13 -1 7 40 9 19 20 30 23 25 4 -6 12 1 18 15
6 14 9 25 6 25 -2 0 -7 -7 -10 -15z"/>
<path d="M579 1088 c10 -13 13 -49 12 -129 -2 -83 2 -116 13 -133 8 -13 16
-36 19 -52 l4 -29 2 32 c1 26 6 32 30 38 37 8 71 -12 71 -42 0 -29 32 -46 73
-37 18 3 51 8 74 11 38 4 44 2 51 -19 10 -25 5 -302 -6 -383 l-7 -50 -45 -3
c-50 -4 -60 -13 -60 -59 0 -26 5 -33 31 -42 46 -16 145 -14 179 4 34 18 50 43
50 81 0 25 -2 26 -37 20 -21 -3 -47 -8 -58 -11 -35 -9 -44 6 -35 55 4 25 11
122 15 216 7 169 7 172 -15 194 -20 20 -29 22 -79 16 -31 -3 -66 -9 -78 -12
-18 -5 -23 -2 -23 13 0 11 -10 33 -22 48 -20 26 -25 27 -75 21 l-53 -6 0 118
c0 111 -2 120 -22 138 -18 15 -20 16 -9 2z m408 -821 c29 -1 54 -6 55 -11 6
-19 -52 -49 -100 -52 -72 -6 -102 8 -102 46 0 30 0 30 48 24 26 -3 71 -6 99
-7z"/>
<path d="M1936 1085 c-9 -26 -7 -32 5 -12 6 10 9 21 6 23 -2 3 -7 -2 -11 -11z"/>
<path d="M2083 1059 c-29 -17 -53 -33 -53 -36 0 -2 26 10 58 28 66 37 69 39
56 39 -5 0 -33 -14 -61 -31z"/>
<path d="M928 1050 c-3 -33 -6 -35 -92 -68 l-90 -35 -57 64 c-31 35 -60 61
-64 57 -4 -3 16 -32 45 -63 28 -31 48 -60 45 -65 -3 -5 0 -12 6 -16 8 -5 10
-2 5 7 -4 8 0 5 8 -5 9 -11 16 -15 16 -9 0 6 45 28 100 49 90 35 100 41 100
64 0 14 -4 31 -9 39 -7 11 -10 6 -13 -19z"/>
<path d="M1547 1038 c48 -20 46 -23 -17 -23 -32 0 -56 3 -53 8 2 4 12 7 21 8
11 0 12 2 4 6 -7 3 -19 -1 -27 -7 -38 -32 40 -73 98 -51 46 18 31 54 -28 65
l-30 6 32 -12z"/>
<path d="M1970 994 c-25 -14 -65 -37 -90 -50 -25 -13 -40 -24 -34 -24 12 0
174 89 174 96 0 6 -2 5 -50 -22z"/>
<path d="M1447 911 c3 -104 12 -116 89 -116 44 0 59 4 70 19 11 16 11 21 2 28
-8 4 -16 1 -20 -10 -4 -9 -7 9 -7 41 -1 40 2 56 10 51 6 -3 8 -15 6 -26 -4
-12 -1 -18 6 -15 7 2 12 24 11 53 0 27 1 43 4 36 2 -6 10 -12 18 -12 20 0 19
-79 -1 -86 -21 -8 -19 -24 3 -24 29 0 42 21 42 66 0 68 -34 90 -87 57 -27 -17
-28 -22 -28 -93 l0 -75 -37 1 c-58 2 -70 17 -67 88 1 34 6 63 10 66 5 3 1 13
-9 21 -16 14 -17 9 -15 -70z"/>
<path d="M17 983 c-3 -5 8 -8 23 -8 15 0 26 3 23 8 -2 4 -13 7 -23 7 -10 0
-21 -3 -23 -7z"/>
<path d="M630 979 c8 -5 29 -17 45 -25 l30 -15 -30 25 c-16 14 -37 26 -45 26
-13 0 -13 -1 0 -11z"/>
<path d="M2543 959 c-29 -17 -53 -33 -53 -36 0 -5 89 44 105 58 16 16 1 9 -52
-22z"/>
<path d="M2630 976 c0 -5 176 -108 195 -114 14 -5 -69 48 -137 87 -32 18 -58
30 -58 27z"/>
<path d="M80 966 c0 -3 14 -12 30 -21 17 -9 30 -13 30 -11 0 3 -13 12 -30 21
-16 9 -30 13 -30 11z"/>
<path d="M3 947 c32 -85 110 -321 115 -351 7 -38 10 -40 186 -142 l179 -103
59 32 c36 20 58 38 58 49 0 10 10 24 23 31 12 8 55 33 95 57 40 23 75 46 77
51 6 8 -35 -13 -176 -92 -48 -27 -89 -49 -91 -49 -3 0 -10 18 -17 40 -11 37
-31 63 -31 41 0 -22 -18 -10 -24 15 -4 15 -9 24 -11 22 -3 -2 8 -41 22 -86 15
-45 24 -84 21 -88 -4 -3 -55 23 -115 59 -60 35 -137 79 -171 97 -48 25 -62 37
-62 54 0 23 -37 135 -84 259 -14 37 -26 72 -26 77 0 5 15 1 33 -10 17 -11 38
-23 46 -27 8 -4 64 -35 125 -70 60 -35 113 -63 118 -63 4 0 14 -12 23 -27 13
-24 15 -24 10 -5 -4 13 -1 30 7 39 11 14 10 15 -10 9 -17 -6 -61 15 -198 93
-97 56 -178 101 -181 101 -3 0 -3 -6 0 -13z m502 -503 c8 -19 19 -34 25 -34 6
0 8 -4 5 -10 -3 -5 -13 -10 -21 -10 -8 0 -12 5 -9 10 3 6 1 10 -4 10 -6 0 -11
9 -11 21 0 11 -5 30 -11 41 -8 15 -8 19 0 14 6 -4 18 -23 26 -42z m85 -9 c0
-2 -10 -9 -22 -15 -22 -11 -22 -10 -4 4 21 17 26 19 26 11z"/>
<path d="M1518 953 c6 -2 18 -2 25 0 6 3 1 5 -13 5 -14 0 -19 -2 -12 -5z"/>
<path d="M1217 931 c-15 -10 -35 -28 -44 -41 -15 -21 -15 -24 2 -36 30 -23 70
-17 104 15 35 33 38 43 15 65 -20 21 -43 20 -77 -3z m53 -25 c0 -15 -16 -30
-42 -39 -26 -9 -31 10 -8 33 23 23 50 27 50 6z"/>
<path d="M155 923 c6 -6 33 -23 60 -38 28 -16 46 -24 40 -18 -5 6 -32 23 -60
38 -27 16 -45 24 -40 18z"/>
<path d="M2413 885 l-62 -35 2 -48 c2 -41 6 -49 32 -62 17 -8 72 -39 123 -69
l92 -53 97 57 c86 50 99 55 119 44 13 -7 21 -15 19 -19 -2 -4 -56 -37 -120
-74 l-116 -67 -114 66 c-63 37 -115 71 -115 77 0 5 -5 6 -11 3 -6 -4 -8 -13
-5 -21 5 -12 0 -12 -24 1 -17 9 -30 13 -30 10 0 -2 32 -21 70 -40 39 -19 70
-37 70 -39 0 -2 -48 -31 -107 -65 -126 -70 -150 -87 -141 -96 4 -4 27 7 51 24
25 17 76 46 114 66 56 29 69 32 71 19 4 -19 -25 -49 -59 -59 -13 -4 -40 -18
-59 -30 -19 -12 -48 -30 -65 -41 -16 -10 -36 -17 -42 -16 -7 2 -13 -2 -13 -9
0 -6 -14 -2 -32 10 -18 12 -68 40 -110 64 -69 37 -78 45 -78 71 0 27 1 28 23
14 12 -8 49 -30 82 -48 33 -18 65 -37 72 -42 7 -6 18 -8 24 -6 7 2 -37 33 -97
67 -60 35 -112 69 -116 75 -4 6 -8 -12 -8 -41 0 -41 4 -55 21 -67 l21 -14 -21
-11 c-12 -7 -21 -18 -21 -26 0 -20 -4 -19 -58 12 -25 15 -43 23 -40 17 4 -5
45 -30 92 -54 47 -25 86 -47 86 -50 -1 -6 -234 -140 -245 -140 -4 0 -59 30
-122 67 l-115 66 38 23 c65 38 72 47 14 16 -55 -29 -55 -30 -58 -80 -3 -43 0
-51 18 -57 25 -8 25 -17 -1 -33 -16 -10 -20 -21 -17 -59 l3 -47 115 -67 c63
-38 119 -68 123 -69 5 0 64 33 133 72 l124 73 0 48 0 48 -27 -20 c-29 -20
-222 -131 -228 -131 -4 0 -227 129 -233 135 -1 1 8 9 21 18 21 14 27 13 77
-17 30 -18 74 -43 96 -55 l41 -23 97 56 c53 32 101 54 108 50 6 -4 8 -3 5 3
-4 6 5 15 18 21 27 13 30 19 15 42 -7 11 -10 12 -10 2 0 -20 -18 -34 -90 -71
-36 -18 -79 -42 -97 -52 -30 -19 -32 -19 -36 -2 -4 14 -5 13 -6 -4 0 -13 -4
-23 -7 -23 -3 0 -54 28 -115 61 -101 57 -109 64 -109 91 0 23 3 28 13 20 6 -5
35 -22 62 -37 28 -16 52 -31 55 -34 3 -3 26 -16 52 -28 l48 -23 32 20 c18 11
41 20 51 20 9 0 17 4 17 9 0 11 109 74 128 74 7 0 15 11 18 24 7 28 9 28 42 5
15 -11 46 -27 69 -38 38 -17 43 -23 43 -53 0 -25 -3 -31 -12 -24 -27 21 -130
74 -135 70 -3 -3 30 -26 72 -50 l76 -45 124 71 123 72 4 48 c2 41 0 51 -17 60
-17 9 -18 8 -7 -5 11 -14 -2 -25 -101 -82 -62 -36 -118 -66 -124 -66 -13 0
-221 118 -228 129 -2 4 6 14 19 20 20 11 33 7 115 -42 l93 -55 98 58 c54 32
100 57 102 55 2 -2 13 4 25 13 17 13 23 29 24 69 l3 52 40 -22 c23 -12 43 -25
46 -28 3 -3 20 -12 38 -20 25 -11 32 -20 32 -41 0 -16 -2 -28 -5 -28 -2 0 -26
13 -53 29 -50 29 -92 46 -92 37 0 -2 34 -23 75 -46 l75 -42 125 72 125 72 0
48 c0 38 -4 51 -22 62 l-22 15 22 12 c18 10 22 20 22 64 0 29 -4 47 -8 41 -10
-17 -239 -147 -250 -143 -5 2 -59 33 -120 68 l-111 65 59 34 c33 18 60 35 60
38 0 6 -1 6 -67 -31z m417 -89 c0 -19 -18 -34 -106 -85 -58 -33 -108 -61 -110
-61 -10 0 -3 38 9 48 13 10 61 38 137 79 25 13 49 28 55 34 13 13 15 12 15
-15z m-417 2 c12 -7 24 -15 27 -18 9 -9 84 -50 122 -68 33 -15 38 -22 38 -50
l0 -33 -27 19 c-38 27 -112 70 -149 87 -36 16 -51 34 -51 58 0 20 9 21 40 5z
m417 -153 c0 -15 -7 -28 -17 -32 -10 -3 -30 -15 -45 -25 -29 -20 -148 -88
-154 -88 -2 0 -4 9 -4 19 0 13 19 32 53 54 47 32 158 97 165 97 1 0 2 -11 2
-25z m-407 -228 c3 -8 2 -18 -1 -23 -9 -12 -89 -64 -99 -64 -5 0 -28 -14 -52
-30 -52 -36 -72 -38 -68 -9 2 13 20 31 43 44 21 12 66 38 99 58 68 41 71 42
78 24z m-813 -250 c0 -6 3 -8 6 -4 3 3 39 -14 79 -39 40 -24 78 -44 84 -44 6
0 11 -16 11 -35 0 -19 -2 -35 -4 -35 -1 0 -33 19 -69 43 -36 23 -86 54 -111
69 -35 21 -46 33 -46 53 0 23 2 24 25 13 14 -6 25 -16 25 -21z m400 0 c0 -18
-14 -30 -62 -55 -35 -18 -82 -44 -105 -58 l-43 -26 0 24 c0 19 12 31 51 54 27
16 71 41 97 56 57 34 62 34 62 5z"/>
<path d="M2508 904 c-16 -8 -28 -21 -28 -29 0 -18 36 -39 44 -26 4 5 0 11 -6
14 -10 3 -10 7 0 19 17 22 63 32 72 17 4 -6 13 -8 20 -4 9 6 9 9 -1 16 -21 13
-71 10 -101 -7z"/>
<path d="M2608 879 c-10 -5 -18 -19 -18 -29 0 -22 -20 -26 -37 -9 -8 8 -13 8
-17 0 -4 -6 4 -16 17 -22 31 -14 67 3 67 32 0 18 4 20 32 13 29 -6 31 -5 19
10 -15 18 -38 20 -63 5z"/>
<path d="M2660 835 c-6 -8 -9 -19 -6 -24 10 -15 -13 -24 -29 -11 -8 6 -19 9
-26 5 -16 -10 9 -25 42 -25 29 0 50 17 43 35 -8 19 14 29 32 14 16 -13 30 -6
19 10 -9 16 -61 13 -75 -4z"/>
<path d="M2184 748 c-4 -7 -3 -8 4 -4 7 4 32 -5 57 -19 25 -15 45 -25 45 -22
0 5 -85 57 -94 57 -3 0 -8 -5 -12 -12z"/>
<path d="M698 743 c7 -3 16 -2 19 1 4 3 -2 6 -13 5 -11 0 -14 -3 -6 -6z"/>
<path d="M638 733 c6 -2 18 -2 25 0 6 3 1 5 -13 5 -14 0 -19 -2 -12 -5z"/>
<path d="M2128 719 c-21 -11 -38 -22 -38 -24 0 -3 18 4 40 15 22 11 40 23 40
25 0 7 0 7 -42 -16z"/>
<path d="M2023 659 c-29 -17 -53 -33 -53 -36 0 -5 89 44 105 58 16 16 1 9 -52
-22z"/>
<path d="M2205 671 c-6 -6 -34 -23 -63 -39 l-53 -29 82 -11 c45 -7 84 -10 86
-8 3 2 -6 25 -19 50 -15 30 -27 43 -33 37z m13 -49 c2 -7 -7 -12 -23 -12 -24
0 -26 2 -15 15 14 17 31 16 38 -3z"/>
<path d="M1758 504 c-39 -20 -35 -28 3 -8 25 13 37 14 58 5 24 -11 25 -10 7 4
-24 18 -33 18 -68 -1z"/>
<path d="M1688 464 c-38 -20 -36 -28 2 -9 17 9 30 18 30 20 0 7 -1 6 -32 -11z"/>
<path d="M1770 440 c0 -5 -16 -10 -36 -10 -29 0 -35 -3 -30 -16 4 -11 -1 -18
-14 -21 -26 -7 -26 -19 1 -26 15 -4 20 -11 16 -21 -7 -16 1 -20 41 -16 12 1
22 -3 22 -9 0 -6 9 -11 20 -11 11 0 20 5 20 10 0 6 16 10 35 10 28 0 35 4 35
20 0 11 7 20 15 20 22 0 18 17 -5 23 -13 3 -18 11 -14 20 4 12 -2 16 -27 15
-18 -1 -35 4 -37 10 -5 15 -42 16 -42 2z m55 -44 c16 -12 17 -16 6 -30 -17
-20 -51 -21 -77 -1 -19 15 -19 15 0 30 25 19 47 19 71 1z"/>
</g>
</svg>
